<svg width="400" height="400" viewBox="0 0 400 400" version="1.1" xmlns="http://www.w3.org/2000/svg" xmlns:xlink="http://www.w3.org/1999/xlink">
<title>Mask Group</title>
<desc>Created using Figma</desc>
<g id="Canvas" transform="translate(-3062 1368)">
<g id="Mask Group">
<mask id="mask0_alpha" mask-type="alpha">
<g id="Rectangle">
<use xlink:href="#path0_fill" transform="translate(3062 -1368)" fill="#C4C4C4"/>
</g>
</mask>
<g id="Group 3" mask="url(#mask0_alpha)">
<g id="Intersect">
<use xlink:href="#path1_fill" transform="translate(3262.33 -1168)" fill="#652FD6"/>
</g>
<g id="Intersect">
<use xlink:href="#path2_fill" transform="translate(3262.33 -1168)" fill="#5620C7"/>
</g>
<g id="Intersect">
<use xlink:href="#path3_fill" transform="translate(3262.33 -1341.09)" fill="#4D17BF"/>
</g>
<g id="Intersect">
<use xlink:href="#path4_fill" transform="translate(3262.33 -1368)" fill="#4612B5"/>
</g>
<g id="Intersect">
<use xlink:href="#path5_fill" transform="translate(3062 -1368)" fill="#3806A1"/>
</g>
<g id="Intersect">
<use xlink:href="#path6_fill" transform="translate(3120.38 -1168)" fill="#8A58F5"/>
</g>
<g id="Intersect">
<use xlink:href="#path7_fill" transform="matrix(0.707107 0.707107 -0.707107 0.707107 3161.42 -1268)" fill="#9D73F5"/>
</g>
<g id="Ellipse">
<use xlink:href="#path8_fill" transform="translate(3232 -1198)" fill="#FFFFFF" fill-opacity="0.2"/>
</g>
<g id="Ellipse">
<use xlink:href="#path9_fill" transform="translate(3179 -1251)" fill="#FFFFFF" fill-opacity="0.2"/>
</g>
<g id="Ellipse">
<use xlink:href="#path10_fill" transform="translate(3097 -1333)" fill="#FFFFFF" fill-opacity="0.2"/>
</g>
<g id="60">
<use xlink:href="#path11_fill" transform="matrix(0.527385 0.849627 -0.849627 0.527385 3421.35 -1266)" fill="#FFFFFF"/>
</g>
<g id="40">
<use xlink:href="#path12_fill" transform="matrix(-0.358543 0.933513 -0.933513 -0.358543 3439.59 -1111.68)" fill="#FFFFFF"/>
</g>
<g id="50">
<use xlink:href="#path13_fill" transform="matrix(-0.850214 0.526438 -0.526438 -0.850214 3349.15 -1002.64)" fill="#FFFFFF"/>
</g>
<g id="45">
<use xlink:href="#path14_fill" transform="matrix(-0.88663 -0.462479 0.462479 -0.88663 3195.71 -993.205)" fill="#FFFFFF"/>
</g>
<g id="45">
<use xlink:href="#path14_fill" transform="matrix(-0.396575 -0.918002 0.918002 -0.396575 3091.55 -1094.35)" fill="#FFFFFF"/>
</g>
<g id="Gift 1">
<use xlink:href="#path15_fill" transform="matrix(0.459163 0.888352 -0.888352 0.459163 3363.76 -1257)" fill="#FFFFFF"/>
</g>
<g id="Gift 2">
<use xlink:href="#path16_fill" transform="matrix(-0.381681 0.924294 -0.924294 -0.381681 3393.91 -1150.93)" fill="#FFFFFF"/>
</g>
<g id="Gift 3">
<use xlink:href="#path17_fill" transform="matrix(-0.908352 0.418206 -0.418206 -0.908352 3342.81 -1063.66)" fill="#FFFFFF"/>
</g>
<g id="Gift 4">
<use xlink:href="#path18_fill" transform="matrix(-0.920202 -0.391445 0.391445 -0.920202 3240.42 -1037.01)" fill="#FFFFFF"/>
</g>
<g id="Gift 5">
<use xlink:href="#path19_fill" transform="matrix(-0.361268 -0.932462 0.932462 -0.361268 3152.84 -1092.63)" fill="#FFFFFF"/>
</g>
<g id="Gift 7">
<use xlink:href="#path20_fill" transform="matrix(0.964596 0.263733 -0.263733 0.964596 3273.59 -1301.77)" fill="#FFFFFF"/>
</g>
<g id="30">
<use xlink:href="#path21_fill" transform="matrix(0.95212 0.305724 -0.305724 0.95212 3306.36 -1350)" fill="#FFFFFF"/>
</g>
<g id="90">
<use xlink:href="#path22_fill" transform="matrix(0.726806 -0.686843 0.686843 0.726806 3126 -1296.44)" fill="#FFFFFF"/>
</g>
<g id="Gift 6">
<use xlink:href="#path23_fill" transform="matrix(0.731572 -0.681764 0.681764 0.731572 3142 -1236.46)" fill="#FFFFFF"/>
</g>
</g>
</g>
</g>
<defs>
<path id="path0_fill" d="M 0 0L 400 0L 400 400L 0 400L 0 0Z"/>
<path id="path1_fill" fill-rule="evenodd" d="M 0 200L 0 0L 152.236 129.322C 115.617 172.481 61.012 199.9 0 200Z"/>
<path id="path2_fill" fill-rule="evenodd" d="M 152.609 128.882C 181.971 94.0739 199.667 49.1034 199.667 0L 0 0L 152.609 128.882Z"/>
<path id="path3_fill" fill-rule="evenodd" d="M 99.5996 -0.195312C 159.327 34.3242 199.546 98.8372 199.667 172.754L 0 172.754L 99.5996 -0.195312Z"/>
<path id="path4_fill" fill-rule="evenodd" d="M 99.895 26.8884L 0 199.667L 0 0C 36.3979 0.0593262 70.5159 9.84167 99.895 26.8884Z"/>
<path id="path5_fill" fill-rule="evenodd" d="M 200.167 0.00012207L 200.167 199.667L 0 199.667C 0.179932 89.363 89.6538 0 200 0C 200.055 0 200.111 0.00012207 200.167 0.00012207Z"/>
<path id="path6_fill" fill-rule="evenodd" d="M 141.624 200L 141.624 0L 0 141.219C 36.2087 177.531 86.2922 200 141.624 200Z"/>
<path id="path7_fill" fill-rule="evenodd" d="M 141.623 200L 141.623 0L 0 141.219C 36.2088 177.531 86.2922 200 141.623 200Z"/>
<path id="path8_fill" d="M 60 30C 60 46.5685 46.5685 60 30 60C 13.4315 60 0 46.5685 0 30C 0 13.4315 13.4315 0 30 0C 46.5685 0 60 13.4315 60 30Z"/>
<path id="path9_fill" d="M 166 83C 166 128.84 128.84 166 83 166C 37.1604 166 0 128.84 0 83C 0 37.1604 37.1604 0 83 0C 128.84 0 166 37.1604 166 83Z"/>
<path id="path10_fill" d="M 330 165C 330 256.127 256.127 330 165 330C 73.873 330 0 256.127 0 165C 0 73.873 73.873 0 165 0C 256.127 0 330 73.873 330 165Z"/>
<path id="path11_fill" d="M 3.72217 1.59717L 3.72217 2.28711L 3.57275 2.28711C 2.93994 2.29883 2.43604 2.48633 2.06104 2.84961C 1.68604 3.21289 1.46924 3.72412 1.41064 4.3833C 1.74756 3.99658 2.20752 3.80322 2.79053 3.80322C 3.34717 3.80322 3.79102 3.99951 4.12207 4.39209C 4.45605 4.78467 4.62305 5.2915 4.62305 5.9126C 4.62305 6.57178 4.44287 7.09912 4.08252 7.49463C 3.7251 7.89014 3.24463 8.08789 2.64111 8.08789C 2.02881 8.08789 1.53223 7.85352 1.15137 7.38477C 0.770508 6.91309 0.580078 6.30664 0.580078 5.56543L 0.580078 5.25342C 0.580078 4.07568 0.830566 3.17627 1.33154 2.55518C 1.83545 1.93115 2.58398 1.61182 3.57715 1.59717L 3.72217 1.59717ZM 2.6543 4.47998C 2.37598 4.47998 2.11963 4.56348 1.88525 4.73047C 1.65088 4.89746 1.48828 5.10693 1.39746 5.35889L 1.39746 5.65771C 1.39746 6.18506 1.51611 6.60986 1.75342 6.93213C 1.99072 7.25439 2.28662 7.41553 2.64111 7.41553C 3.00732 7.41553 3.29443 7.28076 3.50244 7.01123C 3.71338 6.7417 3.81885 6.38867 3.81885 5.95215C 3.81885 5.5127 3.71191 5.1582 3.49805 4.88867C 3.28711 4.61621 3.00586 4.47998 2.6543 4.47998ZM 9.59766 5.271C 9.59766 6.22314 9.43506 6.93066 9.10986 7.39355C 8.78467 7.85645 8.27637 8.08789 7.58496 8.08789C 6.90234 8.08789 6.39697 7.8623 6.06885 7.41113C 5.74072 6.95703 5.5708 6.28027 5.55908 5.38086L 5.55908 4.29541C 5.55908 3.35498 5.72168 2.65625 6.04688 2.19922C 6.37207 1.74219 6.88184 1.51367 7.57617 1.51367C 8.26465 1.51367 8.77148 1.73486 9.09668 2.17725C 9.42188 2.6167 9.58887 3.29639 9.59766 4.21631L 9.59766 5.271ZM 8.78467 4.15918C 8.78467 3.4707 8.68799 2.96973 8.49463 2.65625C 8.30127 2.33984 7.99512 2.18164 7.57617 2.18164C 7.16016 2.18164 6.85693 2.33838 6.6665 2.65186C 6.47607 2.96533 6.37793 3.44727 6.37207 4.09766L 6.37207 5.39844C 6.37207 6.08984 6.47168 6.60107 6.6709 6.93213C 6.87305 7.26025 7.17773 7.42432 7.58496 7.42432C 7.98633 7.42432 8.28369 7.26904 8.47705 6.9585C 8.67334 6.64795 8.77588 6.15869 8.78467 5.49072L 8.78467 4.15918Z"/>
<path id="path12_fill" d="M 3.96387 5.85107L 4.85156 5.85107L 4.85156 6.51465L 3.96387 6.51465L 3.96387 8L 3.14648 8L 3.14648 6.51465L 0.23291 6.51465L 0.23291 6.03564L 3.09814 1.60156L 3.96387 1.60156L 3.96387 5.85107ZM 1.15576 5.85107L 3.14648 5.85107L 3.14648 2.71338L 3.0498 2.88916L 1.15576 5.85107ZM 9.59766 5.271C 9.59766 6.22314 9.43506 6.93066 9.10986 7.39355C 8.78467 7.85645 8.27637 8.08789 7.58496 8.08789C 6.90234 8.08789 6.39697 7.8623 6.06885 7.41113C 5.74072 6.95703 5.5708 6.28027 5.55908 5.38086L 5.55908 4.29541C 5.55908 3.35498 5.72168 2.65625 6.04688 2.19922C 6.37207 1.74219 6.88184 1.51367 7.57617 1.51367C 8.26465 1.51367 8.77148 1.73486 9.09668 2.17725C 9.42188 2.6167 9.58887 3.29639 9.59766 4.21631L 9.59766 5.271ZM 8.78467 4.15918C 8.78467 3.4707 8.68799 2.96973 8.49463 2.65625C 8.30127 2.33984 7.99512 2.18164 7.57617 2.18164C 7.16016 2.18164 6.85693 2.33838 6.6665 2.65186C 6.47607 2.96533 6.37793 3.44727 6.37207 4.09766L 6.37207 5.39844C 6.37207 6.08984 6.47168 6.60107 6.6709 6.93213C 6.87305 7.26025 7.17773 7.42432 7.58496 7.42432C 7.98633 7.42432 8.28369 7.26904 8.47705 6.9585C 8.67334 6.64795 8.77588 6.15869 8.78467 5.49072L 8.78467 4.15918Z"/>
<path id="path13_fill" d="M 0.905273 4.79199L 1.23047 1.60156L 4.50879 1.60156L 4.50879 2.35303L 1.92041 2.35303L 1.72705 4.09766C 2.04053 3.91309 2.39648 3.8208 2.79492 3.8208C 3.37793 3.8208 3.84082 4.01416 4.18359 4.40088C 4.52637 4.78467 4.69775 5.30469 4.69775 5.96094C 4.69775 6.62012 4.51904 7.14014 4.16162 7.521C 3.80713 7.89893 3.31055 8.08789 2.67188 8.08789C 2.10645 8.08789 1.64502 7.93115 1.2876 7.61768C 0.930176 7.3042 0.726562 6.87061 0.676758 6.31689L 1.4458 6.31689C 1.49561 6.68311 1.62598 6.95996 1.83691 7.14746C 2.04785 7.33203 2.32617 7.42432 2.67188 7.42432C 3.0498 7.42432 3.3457 7.29541 3.55957 7.0376C 3.77637 6.77979 3.88477 6.42383 3.88477 5.96973C 3.88477 5.54199 3.76758 5.19922 3.5332 4.94141C 3.30176 4.68066 2.99268 4.55029 2.60596 4.55029C 2.25146 4.55029 1.97314 4.62793 1.771 4.7832L 1.55566 4.95898L 0.905273 4.79199ZM 9.59766 5.271C 9.59766 6.22314 9.43506 6.93066 9.10986 7.39355C 8.78467 7.85645 8.27637 8.08789 7.58496 8.08789C 6.90234 8.08789 6.39697 7.8623 6.06885 7.41113C 5.74072 6.95703 5.5708 6.28027 5.55908 5.38086L 5.55908 4.29541C 5.55908 3.35498 5.72168 2.65625 6.04688 2.19922C 6.37207 1.74219 6.88184 1.51367 7.57617 1.51367C 8.26465 1.51367 8.77148 1.73486 9.09668 2.17725C 9.42188 2.6167 9.58887 3.29639 9.59766 4.21631L 9.59766 5.271ZM 8.78467 4.15918C 8.78467 3.4707 8.68799 2.96973 8.49463 2.65625C 8.30127 2.33984 7.99512 2.18164 7.57617 2.18164C 7.16016 2.18164 6.85693 2.33838 6.6665 2.65186C 6.47607 2.96533 6.37793 3.44727 6.37207 4.09766L 6.37207 5.39844C 6.37207 6.08984 6.47168 6.60107 6.6709 6.93213C 6.87305 7.26025 7.17773 7.42432 7.58496 7.42432C 7.98633 7.42432 8.28369 7.26904 8.47705 6.9585C 8.67334 6.64795 8.77588 6.15869 8.78467 5.49072L 8.78467 4.15918Z"/>
<path id="path14_fill" d="M 3.96387 5.85107L 4.85156 5.85107L 4.85156 6.51465L 3.96387 6.51465L 3.96387 8L 3.14648 8L 3.14648 6.51465L 0.23291 6.51465L 0.23291 6.03564L 3.09814 1.60156L 3.96387 1.60156L 3.96387 5.85107ZM 1.15576 5.85107L 3.14648 5.85107L 3.14648 2.71338L 3.0498 2.88916L 1.15576 5.85107ZM 5.95898 4.79199L 6.28418 1.60156L 9.5625 1.60156L 9.5625 2.35303L 6.97412 2.35303L 6.78076 4.09766C 7.09424 3.91309 7.4502 3.8208 7.84863 3.8208C 8.43164 3.8208 8.89453 4.01416 9.2373 4.40088C 9.58008 4.78467 9.75146 5.30469 9.75146 5.96094C 9.75146 6.62012 9.57275 7.14014 9.21533 7.521C 8.86084 7.89893 8.36426 8.08789 7.72559 8.08789C 7.16016 8.08789 6.69873 7.93115 6.34131 7.61768C 5.98389 7.3042 5.78027 6.87061 5.73047 6.31689L 6.49951 6.31689C 6.54932 6.68311 6.67969 6.95996 6.89062 7.14746C 7.10156 7.33203 7.37988 7.42432 7.72559 7.42432C 8.10352 7.42432 8.39941 7.29541 8.61328 7.0376C 8.83008 6.77979 8.93848 6.42383 8.93848 5.96973C 8.93848 5.54199 8.82129 5.19922 8.58691 4.94141C 8.35547 4.68066 8.04639 4.55029 7.65967 4.55029C 7.30518 4.55029 7.02686 4.62793 6.82471 4.7832L 6.60938 4.95898L 5.95898 4.79199Z"/>
<path id="path15_fill" d="M 14.5781 19.7617C 14 20.5898 13.1914 21.2109 12.1523 21.625C 11.1211 22.0312 9.91797 22.2344 8.54297 22.2344C 7.15234 22.2344 5.91797 21.9102 4.83984 21.2617C 3.76172 20.6055 2.92578 19.6758 2.33203 18.4727C 1.74609 17.2695 1.44531 15.875 1.42969 14.2891L 1.42969 12.8008C 1.42969 10.2305 2.02734 8.23828 3.22266 6.82422C 4.42578 5.41016 6.11328 4.70312 8.28516 4.70312C 10.0664 4.70312 11.5 5.16016 12.5859 6.07422C 13.6719 6.98047 14.3359 8.26953 14.5781 9.94141L 12.3281 9.94141C 11.9062 7.68359 10.5625 6.55469 8.29688 6.55469C 6.78906 6.55469 5.64453 7.08594 4.86328 8.14844C 4.08984 9.20312 3.69922 10.7344 3.69141 12.7422L 3.69141 14.1367C 3.69141 16.0508 4.12891 17.5742 5.00391 18.707C 5.87891 19.832 7.0625 20.3945 8.55469 20.3945C 9.39844 20.3945 10.1367 20.3008 10.7695 20.1133C 11.4023 19.9258 11.9258 19.6094 12.3398 19.1641L 12.3398 15.332L 8.39062 15.332L 8.39062 13.5039L 14.5781 13.5039L 14.5781 19.7617ZM 20.3555 22L 18.1875 22L 18.1875 9.32031L 20.3555 9.32031L 20.3555 22ZM 18.0117 5.95703C 18.0117 5.60547 18.1172 5.30859 18.3281 5.06641C 18.5469 4.82422 18.8672 4.70312 19.2891 4.70312C 19.7109 4.70312 20.0312 4.82422 20.25 5.06641C 20.4688 5.30859 20.5781 5.60547 20.5781 5.95703C 20.5781 6.30859 20.4688 6.60156 20.25 6.83594C 20.0312 7.07031 19.7109 7.1875 19.2891 7.1875C 18.8672 7.1875 18.5469 7.07031 18.3281 6.83594C 18.1172 6.60156 18.0117 6.30859 18.0117 5.95703ZM 24.9023 22L 24.9023 10.9961L 22.8984 10.9961L 22.8984 9.32031L 24.9023 9.32031L 24.9023 8.01953C 24.9023 6.66016 25.2656 5.60937 25.9922 4.86719C 26.7188 4.125 27.7461 3.75391 29.0742 3.75391C 29.5742 3.75391 30.0703 3.82031 30.5625 3.95312L 30.4453 5.71094C 30.0781 5.64062 29.6875 5.60547 29.2734 5.60547C 28.5703 5.60547 28.0273 5.8125 27.6445 6.22656C 27.2617 6.63281 27.0703 7.21875 27.0703 7.98438L 27.0703 9.32031L 29.7773 9.32031L 29.7773 10.9961L 27.0703 10.9961L 27.0703 22L 24.9023 22ZM 35.1211 6.25L 35.1211 9.32031L 37.4883 9.32031L 37.4883 10.9961L 35.1211 10.9961L 35.1211 18.8594C 35.1211 19.3672 35.2266 19.75 35.4375 20.0078C 35.6484 20.2578 36.0078 20.3828 36.5156 20.3828C 36.7656 20.3828 37.1094 20.3359 37.5469 20.2422L 37.5469 22C 36.9766 22.1562 36.4219 22.2344 35.8828 22.2344C 34.9141 22.2344 34.1836 21.9414 33.6914 21.3555C 33.1992 20.7695 32.9531 19.9375 32.9531 18.8594L 32.9531 10.9961L 30.6445 10.9961L 30.6445 9.32031L 32.9531 9.32031L 32.9531 6.25L 35.1211 6.25ZM 52.8867 22L 50.707 22L 50.707 7.55078L 46.3359 9.15625L 46.3359 7.1875L 52.5469 4.85547L 52.8867 4.85547L 52.8867 22Z"/>
<path id="path16_fill" d="M 14.5781 19.7617C 14 20.5898 13.1914 21.2109 12.1523 21.625C 11.1211 22.0312 9.91797 22.2344 8.54297 22.2344C 7.15234 22.2344 5.91797 21.9102 4.83984 21.2617C 3.76172 20.6055 2.92578 19.6758 2.33203 18.4727C 1.74609 17.2695 1.44531 15.875 1.42969 14.2891L 1.42969 12.8008C 1.42969 10.2305 2.02734 8.23828 3.22266 6.82422C 4.42578 5.41016 6.11328 4.70312 8.28516 4.70312C 10.0664 4.70312 11.5 5.16016 12.5859 6.07422C 13.6719 6.98047 14.3359 8.26953 14.5781 9.94141L 12.3281 9.94141C 11.9062 7.68359 10.5625 6.55469 8.29688 6.55469C 6.78906 6.55469 5.64453 7.08594 4.86328 8.14844C 4.08984 9.20312 3.69922 10.7344 3.69141 12.7422L 3.69141 14.1367C 3.69141 16.0508 4.12891 17.5742 5.00391 18.707C 5.87891 19.832 7.0625 20.3945 8.55469 20.3945C 9.39844 20.3945 10.1367 20.3008 10.7695 20.1133C 11.4023 19.9258 11.9258 19.6094 12.3398 19.1641L 12.3398 15.332L 8.39062 15.332L 8.39062 13.5039L 14.5781 13.5039L 14.5781 19.7617ZM 20.3555 22L 18.1875 22L 18.1875 9.32031L 20.3555 9.32031L 20.3555 22ZM 18.0117 5.95703C 18.0117 5.60547 18.1172 5.30859 18.3281 5.06641C 18.5469 4.82422 18.8672 4.70312 19.2891 4.70312C 19.7109 4.70312 20.0312 4.82422 20.25 5.06641C 20.4688 5.30859 20.5781 5.60547 20.5781 5.95703C 20.5781 6.30859 20.4688 6.60156 20.25 6.83594C 20.0312 7.07031 19.7109 7.1875 19.2891 7.1875C 18.8672 7.1875 18.5469 7.07031 18.3281 6.83594C 18.1172 6.60156 18.0117 6.30859 18.0117 5.95703ZM 24.9023 22L 24.9023 10.9961L 22.8984 10.9961L 22.8984 9.32031L 24.9023 9.32031L 24.9023 8.01953C 24.9023 6.66016 25.2656 5.60937 25.9922 4.86719C 26.7188 4.125 27.7461 3.75391 29.0742 3.75391C 29.5742 3.75391 30.0703 3.82031 30.5625 3.95312L 30.4453 5.71094C 30.0781 5.64062 29.6875 5.60547 29.2734 5.60547C 28.5703 5.60547 28.0273 5.8125 27.6445 6.22656C 27.2617 6.63281 27.0703 7.21875 27.0703 7.98438L 27.0703 9.32031L 29.7773 9.32031L 29.7773 10.9961L 27.0703 10.9961L 27.0703 22L 24.9023 22ZM 35.1211 6.25L 35.1211 9.32031L 37.4883 9.32031L 37.4883 10.9961L 35.1211 10.9961L 35.1211 18.8594C 35.1211 19.3672 35.2266 19.75 35.4375 20.0078C 35.6484 20.2578 36.0078 20.3828 36.5156 20.3828C 36.7656 20.3828 37.1094 20.3359 37.5469 20.2422L 37.5469 22C 36.9766 22.1562 36.4219 22.2344 35.8828 22.2344C 34.9141 22.2344 34.1836 21.9414 33.6914 21.3555C 33.1992 20.7695 32.9531 19.9375 32.9531 18.8594L 32.9531 10.9961L 30.6445 10.9961L 30.6445 9.32031L 32.9531 9.32031L 32.9531 6.25L 35.1211 6.25ZM 56.9414 22L 45.7617 22L 45.7617 20.4414L 51.668 13.8789C 52.543 12.8867 53.1445 12.082 53.4727 11.4648C 53.8086 10.8398 53.9766 10.1953 53.9766 9.53125C 53.9766 8.64062 53.707 7.91016 53.168 7.33984C 52.6289 6.76953 51.9102 6.48438 51.0117 6.48438C 49.9336 6.48438 49.0938 6.79297 48.4922 7.41016C 47.8984 8.01953 47.6016 8.87109 47.6016 9.96484L 45.4336 9.96484C 45.4336 8.39453 45.9375 7.125 46.9453 6.15625C 47.9609 5.1875 49.3164 4.70312 51.0117 4.70312C 52.5977 4.70312 53.8516 5.12109 54.7734 5.95703C 55.6953 6.78516 56.1562 7.89062 56.1562 9.27344C 56.1562 10.9531 55.0859 12.9531 52.9453 15.2734L 48.375 20.2305L 56.9414 20.2305L 56.9414 22Z"/>
<path id="path17_fill" d="M 14.5781 19.7617C 14 20.5898 13.1914 21.2109 12.1523 21.625C 11.1211 22.0312 9.91797 22.2344 8.54297 22.2344C 7.15234 22.2344 5.91797 21.9102 4.83984 21.2617C 3.76172 20.6055 2.92578 19.6758 2.33203 18.4727C 1.74609 17.2695 1.44531 15.875 1.42969 14.2891L 1.42969 12.8008C 1.42969 10.2305 2.02734 8.23828 3.22266 6.82422C 4.42578 5.41016 6.11328 4.70312 8.28516 4.70312C 10.0664 4.70312 11.5 5.16016 12.5859 6.07422C 13.6719 6.98047 14.3359 8.26953 14.5781 9.94141L 12.3281 9.94141C 11.9062 7.68359 10.5625 6.55469 8.29688 6.55469C 6.78906 6.55469 5.64453 7.08594 4.86328 8.14844C 4.08984 9.20312 3.69922 10.7344 3.69141 12.7422L 3.69141 14.1367C 3.69141 16.0508 4.12891 17.5742 5.00391 18.707C 5.87891 19.832 7.0625 20.3945 8.55469 20.3945C 9.39844 20.3945 10.1367 20.3008 10.7695 20.1133C 11.4023 19.9258 11.9258 19.6094 12.3398 19.1641L 12.3398 15.332L 8.39062 15.332L 8.39062 13.5039L 14.5781 13.5039L 14.5781 19.7617ZM 20.3555 22L 18.1875 22L 18.1875 9.32031L 20.3555 9.32031L 20.3555 22ZM 18.0117 5.95703C 18.0117 5.60547 18.1172 5.30859 18.3281 5.06641C 18.5469 4.82422 18.8672 4.70312 19.2891 4.70312C 19.7109 4.70312 20.0312 4.82422 20.25 5.06641C 20.4688 5.30859 20.5781 5.60547 20.5781 5.95703C 20.5781 6.30859 20.4688 6.60156 20.25 6.83594C 20.0312 7.07031 19.7109 7.1875 19.2891 7.1875C 18.8672 7.1875 18.5469 7.07031 18.3281 6.83594C 18.1172 6.60156 18.0117 6.30859 18.0117 5.95703ZM 24.9023 22L 24.9023 10.9961L 22.8984 10.9961L 22.8984 9.32031L 24.9023 9.32031L 24.9023 8.01953C 24.9023 6.66016 25.2656 5.60937 25.9922 4.86719C 26.7188 4.125 27.7461 3.75391 29.0742 3.75391C 29.5742 3.75391 30.0703 3.82031 30.5625 3.95312L 30.4453 5.71094C 30.0781 5.64062 29.6875 5.60547 29.2734 5.60547C 28.5703 5.60547 28.0273 5.8125 27.6445 6.22656C 27.2617 6.63281 27.0703 7.21875 27.0703 7.98438L 27.0703 9.32031L 29.7773 9.32031L 29.7773 10.9961L 27.0703 10.9961L 27.0703 22L 24.9023 22ZM 35.1211 6.25L 35.1211 9.32031L 37.4883 9.32031L 37.4883 10.9961L 35.1211 10.9961L 35.1211 18.8594C 35.1211 19.3672 35.2266 19.75 35.4375 20.0078C 35.6484 20.2578 36.0078 20.3828 36.5156 20.3828C 36.7656 20.3828 37.1094 20.3359 37.5469 20.2422L 37.5469 22C 36.9766 22.1562 36.4219 22.2344 35.8828 22.2344C 34.9141 22.2344 34.1836 21.9414 33.6914 21.3555C 33.1992 20.7695 32.9531 19.9375 32.9531 18.8594L 32.9531 10.9961L 30.6445 10.9961L 30.6445 9.32031L 32.9531 9.32031L 32.9531 6.25L 35.1211 6.25ZM 48.9141 12.4141L 50.543 12.4141C 51.5664 12.3984 52.3711 12.1289 52.957 11.6055C 53.543 11.082 53.8359 10.375 53.8359 9.48438C 53.8359 7.48437 52.8398 6.48438 50.8477 6.48438C 49.9102 6.48438 49.1602 6.75391 48.5977 7.29297C 48.043 7.82422 47.7656 8.53125 47.7656 9.41406L 45.5977 9.41406C 45.5977 8.0625 46.0898 6.94141 47.0742 6.05078C 48.0664 5.15234 49.3242 4.70312 50.8477 4.70312C 52.457 4.70312 53.7188 5.12891 54.6328 5.98047C 55.5469 6.83203 56.0039 8.01562 56.0039 9.53125C 56.0039 10.2734 55.7617 10.9922 55.2773 11.6875C 54.8008 12.3828 54.1484 12.9023 53.3203 13.2461C 54.2578 13.543 54.9805 14.0352 55.4883 14.7227C 56.0039 15.4102 56.2617 16.25 56.2617 17.2422C 56.2617 18.7734 55.7617 19.9883 54.7617 20.8867C 53.7617 21.7852 52.4609 22.2344 50.8594 22.2344C 49.2578 22.2344 47.9531 21.8008 46.9453 20.9336C 45.9453 20.0664 45.4453 18.9219 45.4453 17.5L 47.625 17.5C 47.625 18.3984 47.918 19.1172 48.5039 19.6562C 49.0898 20.1953 49.875 20.4648 50.8594 20.4648C 51.9062 20.4648 52.707 20.1914 53.2617 19.6445C 53.8164 19.0977 54.0938 18.3125 54.0938 17.2891C 54.0938 16.2969 53.7891 15.5352 53.1797 15.0039C 52.5703 14.4727 51.6914 14.1992 50.543 14.1836L 48.9141 14.1836L 48.9141 12.4141Z"/>
<path id="path18_fill" d="M 14.5781 19.7617C 14 20.5898 13.1914 21.2109 12.1523 21.625C 11.1211 22.0312 9.91797 22.2344 8.54297 22.2344C 7.15234 22.2344 5.91797 21.9102 4.83984 21.2617C 3.76172 20.6055 2.92578 19.6758 2.33203 18.4727C 1.74609 17.2695 1.44531 15.875 1.42969 14.2891L 1.42969 12.8008C 1.42969 10.2305 2.02734 8.23828 3.22266 6.82422C 4.42578 5.41016 6.11328 4.70312 8.28516 4.70312C 10.0664 4.70312 11.5 5.16016 12.5859 6.07422C 13.6719 6.98047 14.3359 8.26953 14.5781 9.94141L 12.3281 9.94141C 11.9062 7.68359 10.5625 6.55469 8.29688 6.55469C 6.78906 6.55469 5.64453 7.08594 4.86328 8.14844C 4.08984 9.20312 3.69922 10.7344 3.69141 12.7422L 3.69141 14.1367C 3.69141 16.0508 4.12891 17.5742 5.00391 18.707C 5.87891 19.832 7.0625 20.3945 8.55469 20.3945C 9.39844 20.3945 10.1367 20.3008 10.7695 20.1133C 11.4023 19.9258 11.9258 19.6094 12.3398 19.1641L 12.3398 15.332L 8.39062 15.332L 8.39062 13.5039L 14.5781 13.5039L 14.5781 19.7617ZM 20.3555 22L 18.1875 22L 18.1875 9.32031L 20.3555 9.32031L 20.3555 22ZM 18.0117 5.95703C 18.0117 5.60547 18.1172 5.30859 18.3281 5.06641C 18.5469 4.82422 18.8672 4.70312 19.2891 4.70312C 19.7109 4.70312 20.0312 4.82422 20.25 5.06641C 20.4688 5.30859 20.5781 5.60547 20.5781 5.95703C 20.5781 6.30859 20.4688 6.60156 20.25 6.83594C 20.0312 7.07031 19.7109 7.1875 19.2891 7.1875C 18.8672 7.1875 18.5469 7.07031 18.3281 6.83594C 18.1172 6.60156 18.0117 6.30859 18.0117 5.95703ZM 24.9023 22L 24.9023 10.9961L 22.8984 10.9961L 22.8984 9.32031L 24.9023 9.32031L 24.9023 8.01953C 24.9023 6.66016 25.2656 5.60937 25.9922 4.86719C 26.7188 4.125 27.7461 3.75391 29.0742 3.75391C 29.5742 3.75391 30.0703 3.82031 30.5625 3.95312L 30.4453 5.71094C 30.0781 5.64062 29.6875 5.60547 29.2734 5.60547C 28.5703 5.60547 28.0273 5.8125 27.6445 6.22656C 27.2617 6.63281 27.0703 7.21875 27.0703 7.98438L 27.0703 9.32031L 29.7773 9.32031L 29.7773 10.9961L 27.0703 10.9961L 27.0703 22L 24.9023 22ZM 35.1211 6.25L 35.1211 9.32031L 37.4883 9.32031L 37.4883 10.9961L 35.1211 10.9961L 35.1211 18.8594C 35.1211 19.3672 35.2266 19.75 35.4375 20.0078C 35.6484 20.2578 36.0078 20.3828 36.5156 20.3828C 36.7656 20.3828 37.1094 20.3359 37.5469 20.2422L 37.5469 22C 36.9766 22.1562 36.4219 22.2344 35.8828 22.2344C 34.9141 22.2344 34.1836 21.9414 33.6914 21.3555C 33.1992 20.7695 32.9531 19.9375 32.9531 18.8594L 32.9531 10.9961L 30.6445 10.9961L 30.6445 9.32031L 32.9531 9.32031L 32.9531 6.25L 35.1211 6.25ZM 54.9141 16.2695L 57.2812 16.2695L 57.2812 18.0391L 54.9141 18.0391L 54.9141 22L 52.7344 22L 52.7344 18.0391L 44.9648 18.0391L 44.9648 16.7617L 52.6055 4.9375L 54.9141 4.9375L 54.9141 16.2695ZM 47.4258 16.2695L 52.7344 16.2695L 52.7344 7.90234L 52.4766 8.37109L 47.4258 16.2695Z"/>
<path id="path19_fill" d="M 14.5781 19.7617C 14 20.5898 13.1914 21.2109 12.1523 21.625C 11.1211 22.0312 9.91797 22.2344 8.54297 22.2344C 7.15234 22.2344 5.91797 21.9102 4.83984 21.2617C 3.76172 20.6055 2.92578 19.6758 2.33203 18.4727C 1.74609 17.2695 1.44531 15.875 1.42969 14.2891L 1.42969 12.8008C 1.42969 10.2305 2.02734 8.23828 3.22266 6.82422C 4.42578 5.41016 6.11328 4.70312 8.28516 4.70312C 10.0664 4.70312 11.5 5.16016 12.5859 6.07422C 13.6719 6.98047 14.3359 8.26953 14.5781 9.94141L 12.3281 9.94141C 11.9062 7.68359 10.5625 6.55469 8.29688 6.55469C 6.78906 6.55469 5.64453 7.08594 4.86328 8.14844C 4.08984 9.20312 3.69922 10.7344 3.69141 12.7422L 3.69141 14.1367C 3.69141 16.0508 4.12891 17.5742 5.00391 18.707C 5.87891 19.832 7.0625 20.3945 8.55469 20.3945C 9.39844 20.3945 10.1367 20.3008 10.7695 20.1133C 11.4023 19.9258 11.9258 19.6094 12.3398 19.1641L 12.3398 15.332L 8.39062 15.332L 8.39062 13.5039L 14.5781 13.5039L 14.5781 19.7617ZM 20.3555 22L 18.1875 22L 18.1875 9.32031L 20.3555 9.32031L 20.3555 22ZM 18.0117 5.95703C 18.0117 5.60547 18.1172 5.30859 18.3281 5.06641C 18.5469 4.82422 18.8672 4.70312 19.2891 4.70312C 19.7109 4.70312 20.0312 4.82422 20.25 5.06641C 20.4688 5.30859 20.5781 5.60547 20.5781 5.95703C 20.5781 6.30859 20.4688 6.60156 20.25 6.83594C 20.0312 7.07031 19.7109 7.1875 19.2891 7.1875C 18.8672 7.1875 18.5469 7.07031 18.3281 6.83594C 18.1172 6.60156 18.0117 6.30859 18.0117 5.95703ZM 24.9023 22L 24.9023 10.9961L 22.8984 10.9961L 22.8984 9.32031L 24.9023 9.32031L 24.9023 8.01953C 24.9023 6.66016 25.2656 5.60937 25.9922 4.86719C 26.7188 4.125 27.7461 3.75391 29.0742 3.75391C 29.5742 3.75391 30.0703 3.82031 30.5625 3.95312L 30.4453 5.71094C 30.0781 5.64062 29.6875 5.60547 29.2734 5.60547C 28.5703 5.60547 28.0273 5.8125 27.6445 6.22656C 27.2617 6.63281 27.0703 7.21875 27.0703 7.98438L 27.0703 9.32031L 29.7773 9.32031L 29.7773 10.9961L 27.0703 10.9961L 27.0703 22L 24.9023 22ZM 35.1211 6.25L 35.1211 9.32031L 37.4883 9.32031L 37.4883 10.9961L 35.1211 10.9961L 35.1211 18.8594C 35.1211 19.3672 35.2266 19.75 35.4375 20.0078C 35.6484 20.2578 36.0078 20.3828 36.5156 20.3828C 36.7656 20.3828 37.1094 20.3359 37.5469 20.2422L 37.5469 22C 36.9766 22.1562 36.4219 22.2344 35.8828 22.2344C 34.9141 22.2344 34.1836 21.9414 33.6914 21.3555C 33.1992 20.7695 32.9531 19.9375 32.9531 18.8594L 32.9531 10.9961L 30.6445 10.9961L 30.6445 9.32031L 32.9531 9.32031L 32.9531 6.25L 35.1211 6.25ZM 46.7578 13.4453L 47.625 4.9375L 56.3672 4.9375L 56.3672 6.94141L 49.4648 6.94141L 48.9492 11.5938C 49.7852 11.1016 50.7344 10.8555 51.7969 10.8555C 53.3516 10.8555 54.5859 11.3711 55.5 12.4023C 56.4141 13.4258 56.8711 14.8125 56.8711 16.5625C 56.8711 18.3203 56.3945 19.707 55.4414 20.7227C 54.4961 21.7305 53.1719 22.2344 51.4688 22.2344C 49.9609 22.2344 48.7305 21.8164 47.7773 20.9805C 46.8242 20.1445 46.2812 18.9883 46.1484 17.5117L 48.1992 17.5117C 48.332 18.4883 48.6797 19.2266 49.2422 19.7266C 49.8047 20.2188 50.5469 20.4648 51.4688 20.4648C 52.4766 20.4648 53.2656 20.1211 53.8359 19.4336C 54.4141 18.7461 54.7031 17.7969 54.7031 16.5859C 54.7031 15.4453 54.3906 14.5312 53.7656 13.8438C 53.1484 13.1484 52.3242 12.8008 51.293 12.8008C 50.3477 12.8008 49.6055 13.0078 49.0664 13.4219L 48.4922 13.8906L 46.7578 13.4453Z"/>
<path id="path20_fill" d="M 12.1484 17.1348C 11.6667 17.8249 10.9928 18.3424 10.127 18.6875C 9.26758 19.026 8.26497 19.1953 7.11914 19.1953C 5.96029 19.1953 4.93164 18.9251 4.0332 18.3848C 3.13477 17.8379 2.43815 17.0632 1.94336 16.0605C 1.45508 15.0579 1.20443 13.8958 1.19141 12.5742L 1.19141 11.334C 1.19141 9.19206 1.68945 7.5319 2.68555 6.35352C 3.68815 5.17513 5.0944 4.58594 6.9043 4.58594C 8.38867 4.58594 9.58333 4.9668 10.4883 5.72852C 11.3932 6.48372 11.9466 7.55794 12.1484 8.95117L 10.2734 8.95117C 9.92188 7.06966 8.80208 6.12891 6.91406 6.12891C 5.65755 6.12891 4.70378 6.57161 4.05273 7.45703C 3.4082 8.33594 3.08268 9.61198 3.07617 11.2852L 3.07617 12.4473C 3.07617 14.0423 3.44076 15.3118 4.16992 16.2559C 4.89909 17.1934 5.88542 17.6621 7.12891 17.6621C 7.83203 17.6621 8.44727 17.584 8.97461 17.4277C 9.50195 17.2715 9.93815 17.0078 10.2832 16.6367L 10.2832 13.4434L 6.99219 13.4434L 6.99219 11.9199L 12.1484 11.9199L 12.1484 17.1348ZM 16.9629 19L 15.1562 19L 15.1562 8.43359L 16.9629 8.43359L 16.9629 19ZM 15.0098 5.63086C 15.0098 5.33789 15.0977 5.09049 15.2734 4.88867C 15.4557 4.68685 15.7227 4.58594 16.0742 4.58594C 16.4258 4.58594 16.6927 4.68685 16.875 4.88867C 17.0573 5.09049 17.1484 5.33789 17.1484 5.63086C 17.1484 5.92383 17.0573 6.16797 16.875 6.36328C 16.6927 6.55859 16.4258 6.65625 16.0742 6.65625C 15.7227 6.65625 15.4557 6.55859 15.2734 6.36328C 15.0977 6.16797 15.0098 5.92383 15.0098 5.63086ZM 20.752 19L 20.752 9.83008L 19.082 9.83008L 19.082 8.43359L 20.752 8.43359L 20.752 7.34961C 20.752 6.2168 21.0547 5.34115 21.6602 4.72266C 22.2656 4.10417 23.1217 3.79492 24.2285 3.79492C 24.6452 3.79492 25.0586 3.85026 25.4688 3.96094L 25.3711 5.42578C 25.0651 5.36719 24.7396 5.33789 24.3945 5.33789C 23.8086 5.33789 23.3561 5.51042 23.0371 5.85547C 22.7181 6.19401 22.5586 6.68229 22.5586 7.32031L 22.5586 8.43359L 24.8145 8.43359L 24.8145 9.83008L 22.5586 9.83008L 22.5586 19L 20.752 19ZM 29.2676 5.875L 29.2676 8.43359L 31.2402 8.43359L 31.2402 9.83008L 29.2676 9.83008L 29.2676 16.3828C 29.2676 16.806 29.3555 17.125 29.5312 17.3398C 29.707 17.5482 30.0065 17.6523 30.4297 17.6523C 30.638 17.6523 30.9245 17.6133 31.2891 17.5352L 31.2891 19C 30.8138 19.1302 30.3516 19.1953 29.9023 19.1953C 29.0951 19.1953 28.4863 18.9512 28.0762 18.4629C 27.666 17.9746 27.4609 17.2812 27.4609 16.3828L 27.4609 9.83008L 25.5371 9.83008L 25.5371 8.43359L 27.4609 8.43359L 27.4609 5.875L 29.2676 5.875ZM 47.3145 5.79688L 41.4258 19L 39.5312 19L 45.4004 6.26562L 37.7051 6.26562L 37.7051 4.78125L 47.3145 4.78125L 47.3145 5.79688Z"/>
<path id="path21_fill" d="M 1.71387 4.40527L 2.32471 4.40527C 2.7085 4.39941 3.01025 4.29834 3.22998 4.10205C 3.44971 3.90576 3.55957 3.64062 3.55957 3.30664C 3.55957 2.55664 3.18604 2.18164 2.43896 2.18164C 2.0874 2.18164 1.80615 2.28271 1.59521 2.48486C 1.38721 2.68408 1.2832 2.94922 1.2832 3.28027L 0.470215 3.28027C 0.470215 2.77344 0.654785 2.35303 1.02393 2.01904C 1.396 1.68213 1.86768 1.51367 2.43896 1.51367C 3.04248 1.51367 3.51562 1.67334 3.8584 1.99268C 4.20117 2.31201 4.37256 2.75586 4.37256 3.32422C 4.37256 3.60254 4.28174 3.87207 4.1001 4.13281C 3.92139 4.39355 3.67676 4.58838 3.36621 4.71729C 3.71777 4.82861 3.98877 5.01318 4.1792 5.271C 4.37256 5.52881 4.46924 5.84375 4.46924 6.21582C 4.46924 6.79004 4.28174 7.24561 3.90674 7.58252C 3.53174 7.91943 3.04395 8.08789 2.44336 8.08789C 1.84277 8.08789 1.35352 7.92529 0.975586 7.6001C 0.600586 7.2749 0.413086 6.8457 0.413086 6.3125L 1.23047 6.3125C 1.23047 6.64941 1.34033 6.91895 1.56006 7.12109C 1.77979 7.32324 2.07422 7.42432 2.44336 7.42432C 2.83594 7.42432 3.13623 7.32178 3.34424 7.1167C 3.55225 6.91162 3.65625 6.61719 3.65625 6.2334C 3.65625 5.86133 3.54199 5.57568 3.31348 5.37646C 3.08496 5.17725 2.75537 5.07471 2.32471 5.06885L 1.71387 5.06885L 1.71387 4.40527ZM 9.59766 5.271C 9.59766 6.22314 9.43506 6.93066 9.10986 7.39355C 8.78467 7.85645 8.27637 8.08789 7.58496 8.08789C 6.90234 8.08789 6.39697 7.8623 6.06885 7.41113C 5.74072 6.95703 5.5708 6.28027 5.55908 5.38086L 5.55908 4.29541C 5.55908 3.35498 5.72168 2.65625 6.04688 2.19922C 6.37207 1.74219 6.88184 1.51367 7.57617 1.51367C 8.26465 1.51367 8.77148 1.73486 9.09668 2.17725C 9.42188 2.6167 9.58887 3.29639 9.59766 4.21631L 9.59766 5.271ZM 8.78467 4.15918C 8.78467 3.4707 8.68799 2.96973 8.49463 2.65625C 8.30127 2.33984 7.99512 2.18164 7.57617 2.18164C 7.16016 2.18164 6.85693 2.33838 6.6665 2.65186C 6.47607 2.96533 6.37793 3.44727 6.37207 4.09766L 6.37207 5.39844C 6.37207 6.08984 6.47168 6.60107 6.6709 6.93213C 6.87305 7.26025 7.17773 7.42432 7.58496 7.42432C 7.98633 7.42432 8.28369 7.26904 8.47705 6.9585C 8.67334 6.64795 8.77588 6.15869 8.78467 5.49072L 8.78467 4.15918Z"/>
<path id="path22_fill" d="M 3.64746 5.1875C 3.47754 5.38965 3.27393 5.55225 3.03662 5.67529C 2.80225 5.79834 2.54443 5.85986 2.26318 5.85986C 1.89404 5.85986 1.57178 5.76904 1.29639 5.5874C 1.02393 5.40576 0.812988 5.15088 0.663574 4.82275C 0.51416 4.4917 0.439453 4.12695 0.439453 3.72852C 0.439453 3.30078 0.52002 2.91553 0.681152 2.57275C 0.845215 2.22998 1.07666 1.96777 1.37549 1.78613C 1.67432 1.60449 2.02295 1.51367 2.42139 1.51367C 3.0542 1.51367 3.55225 1.75098 3.91553 2.22559C 4.28174 2.69727 4.46484 3.3418 4.46484 4.15918L 4.46484 4.39648C 4.46484 5.6416 4.21875 6.55127 3.72656 7.12549C 3.23438 7.69678 2.4917 7.98975 1.49854 8.00439L 1.34033 8.00439L 1.34033 7.31885L 1.51172 7.31885C 2.18262 7.30713 2.69824 7.13281 3.05859 6.7959C 3.41895 6.45605 3.61523 5.91992 3.64746 5.1875ZM 2.39502 5.1875C 2.66748 5.1875 2.91797 5.104 3.14648 4.93701C 3.37793 4.77002 3.54639 4.56348 3.65186 4.31738L 3.65186 3.99219C 3.65186 3.45898 3.53613 3.02539 3.30469 2.69141C 3.07324 2.35742 2.78027 2.19043 2.42578 2.19043C 2.06836 2.19043 1.78125 2.32812 1.56445 2.60352C 1.34766 2.87598 1.23926 3.23633 1.23926 3.68457C 1.23926 4.12109 1.34326 4.48145 1.55127 4.76562C 1.76221 5.04688 2.04346 5.1875 2.39502 5.1875ZM 9.59766 5.271C 9.59766 6.22314 9.43506 6.93066 9.10986 7.39355C 8.78467 7.85645 8.27637 8.08789 7.58496 8.08789C 6.90234 8.08789 6.39697 7.8623 6.06885 7.41113C 5.74072 6.95703 5.5708 6.28027 5.55908 5.38086L 5.55908 4.29541C 5.55908 3.35498 5.72168 2.65625 6.04688 2.19922C 6.37207 1.74219 6.88184 1.51367 7.57617 1.51367C 8.26465 1.51367 8.77148 1.73486 9.09668 2.17725C 9.42188 2.6167 9.58887 3.29639 9.59766 4.21631L 9.59766 5.271ZM 8.78467 4.15918C 8.78467 3.4707 8.68799 2.96973 8.49463 2.65625C 8.30127 2.33984 7.99512 2.18164 7.57617 2.18164C 7.16016 2.18164 6.85693 2.33838 6.6665 2.65186C 6.47607 2.96533 6.37793 3.44727 6.37207 4.09766L 6.37207 5.39844C 6.37207 6.08984 6.47168 6.60107 6.6709 6.93213C 6.87305 7.26025 7.17773 7.42432 7.58496 7.42432C 7.98633 7.42432 8.28369 7.26904 8.47705 6.9585C 8.67334 6.64795 8.77588 6.15869 8.78467 5.49072L 8.78467 4.15918Z"/>
<path id="path23_fill" d="M 14.5781 19.7617C 14 20.5898 13.1914 21.2109 12.1523 21.625C 11.1211 22.0312 9.91797 22.2344 8.54297 22.2344C 7.15234 22.2344 5.91797 21.9102 4.83984 21.2617C 3.76172 20.6055 2.92578 19.6758 2.33203 18.4727C 1.74609 17.2695 1.44531 15.875 1.42969 14.2891L 1.42969 12.8008C 1.42969 10.2305 2.02734 8.23828 3.22266 6.82422C 4.42578 5.41016 6.11328 4.70312 8.28516 4.70312C 10.0664 4.70312 11.5 5.16016 12.5859 6.07422C 13.6719 6.98047 14.3359 8.26953 14.5781 9.94141L 12.3281 9.94141C 11.9062 7.68359 10.5625 6.55469 8.29688 6.55469C 6.78906 6.55469 5.64453 7.08594 4.86328 8.14844C 4.08984 9.20312 3.69922 10.7344 3.69141 12.7422L 3.69141 14.1367C 3.69141 16.0508 4.12891 17.5742 5.00391 18.707C 5.87891 19.832 7.0625 20.3945 8.55469 20.3945C 9.39844 20.3945 10.1367 20.3008 10.7695 20.1133C 11.4023 19.9258 11.9258 19.6094 12.3398 19.1641L 12.3398 15.332L 8.39062 15.332L 8.39062 13.5039L 14.5781 13.5039L 14.5781 19.7617ZM 20.3555 22L 18.1875 22L 18.1875 9.32031L 20.3555 9.32031L 20.3555 22ZM 18.0117 5.95703C 18.0117 5.60547 18.1172 5.30859 18.3281 5.06641C 18.5469 4.82422 18.8672 4.70312 19.2891 4.70312C 19.7109 4.70312 20.0312 4.82422 20.25 5.06641C 20.4688 5.30859 20.5781 5.60547 20.5781 5.95703C 20.5781 6.30859 20.4688 6.60156 20.25 6.83594C 20.0312 7.07031 19.7109 7.1875 19.2891 7.1875C 18.8672 7.1875 18.5469 7.07031 18.3281 6.83594C 18.1172 6.60156 18.0117 6.30859 18.0117 5.95703ZM 24.9023 22L 24.9023 10.9961L 22.8984 10.9961L 22.8984 9.32031L 24.9023 9.32031L 24.9023 8.01953C 24.9023 6.66016 25.2656 5.60937 25.9922 4.86719C 26.7188 4.125 27.7461 3.75391 29.0742 3.75391C 29.5742 3.75391 30.0703 3.82031 30.5625 3.95312L 30.4453 5.71094C 30.0781 5.64062 29.6875 5.60547 29.2734 5.60547C 28.5703 5.60547 28.0273 5.8125 27.6445 6.22656C 27.2617 6.63281 27.0703 7.21875 27.0703 7.98438L 27.0703 9.32031L 29.7773 9.32031L 29.7773 10.9961L 27.0703 10.9961L 27.0703 22L 24.9023 22ZM 35.1211 6.25L 35.1211 9.32031L 37.4883 9.32031L 37.4883 10.9961L 35.1211 10.9961L 35.1211 18.8594C 35.1211 19.3672 35.2266 19.75 35.4375 20.0078C 35.6484 20.2578 36.0078 20.3828 36.5156 20.3828C 36.7656 20.3828 37.1094 20.3359 37.5469 20.2422L 37.5469 22C 36.9766 22.1562 36.4219 22.2344 35.8828 22.2344C 34.9141 22.2344 34.1836 21.9414 33.6914 21.3555C 33.1992 20.7695 32.9531 19.9375 32.9531 18.8594L 32.9531 10.9961L 30.6445 10.9961L 30.6445 9.32031L 32.9531 9.32031L 32.9531 6.25L 35.1211 6.25ZM 54.2695 4.92578L 54.2695 6.76562L 53.8711 6.76562C 52.1836 6.79688 50.8398 7.29687 49.8398 8.26562C 48.8398 9.23438 48.2617 10.5977 48.1055 12.3555C 49.0039 11.3242 50.2305 10.8086 51.7852 10.8086C 53.2695 10.8086 54.4531 11.332 55.3359 12.3789C 56.2266 13.4258 56.6719 14.7773 56.6719 16.4336C 56.6719 18.1914 56.1914 19.5977 55.2305 20.6523C 54.2773 21.707 52.9961 22.2344 51.3867 22.2344C 49.7539 22.2344 48.4297 21.6094 47.4141 20.3594C 46.3984 19.1016 45.8906 17.4844 45.8906 15.5078L 45.8906 14.6758C 45.8906 11.5352 46.5586 9.13672 47.8945 7.48047C 49.2383 5.81641 51.2344 4.96484 53.8828 4.92578L 54.2695 4.92578ZM 51.4219 12.6133C 50.6797 12.6133 49.9961 12.8359 49.3711 13.2812C 48.7461 13.7266 48.3125 14.2852 48.0703 14.957L 48.0703 15.7539C 48.0703 17.1602 48.3867 18.293 49.0195 19.1523C 49.6523 20.0117 50.4414 20.4414 51.3867 20.4414C 52.3633 20.4414 53.1289 20.082 53.6836 19.3633C 54.2461 18.6445 54.5273 17.7031 54.5273 16.5391C 54.5273 15.3672 54.2422 14.4219 53.6719 13.7031C 53.1094 12.9766 52.3594 12.6133 51.4219 12.6133Z"/>
</defs>
</svg>
