<svg width="400" height="400" viewBox="0 0 400 400" version="1.1" xmlns="http://www.w3.org/2000/svg" xmlns:xlink="http://www.w3.org/1999/xlink">
<title>Mask Group</title>
<desc>Created using Figma</desc>
<g id="Canvas" transform="translate(-3062 1368)">
<g id="Mask Group">
<mask id="mask0_alpha" mask-type="alpha">
<g id="Rectangle">
<use xlink:href="#path0_fill" transform="translate(3062 -1368)" fill="#C4C4C4"/>
</g>
</mask>
<g id="Group 3" mask="url(#mask0_alpha)">
<g id="Intersect">
<use xlink:href="#path1_fill" transform="translate(3262.33 -1168)" fill="#219653"/>
</g>
<g id="Intersect">
<use xlink:href="#path2_fill" transform="translate(3262.33 -1168)" fill="#9B51E0"/>
</g>
<g id="Intersect">
<use xlink:href="#path3_fill" transform="translate(3262.33 -1341.09)" fill="#F2C94C"/>
</g>
<g id="Intersect">
<use xlink:href="#path4_fill" transform="translate(3262.33 -1368)" fill="#6FCF97"/>
</g>
<g id="Intersect">
<use xlink:href="#path5_fill" transform="translate(3062 -1368)" fill="#F2994A"/>
</g>
<g id="Intersect">
<use xlink:href="#path6_fill" transform="translate(3120.38 -1168)" fill="#EB5757"/>
</g>
<g id="Intersect">
<use xlink:href="#path7_fill" transform="matrix(0.707107 0.707107 -0.707107 0.707107 3161.42 -1268)" fill="#56CCF2"/>
</g>
<g id="Gift 1">
<use xlink:href="#path8_fill" transform="matrix(0.625417 0.780291 -0.780291 0.625417 3362.48 -1298)" fill="#FFFFFF"/>
</g>
<g id="Gift 7">
<use xlink:href="#path9_fill" transform="matrix(0.906869 0.421414 -0.421414 0.906869 3277.17 -1325.24)" fill="#FFFFFF"/>
</g>
<g id="Gift 3">
<use xlink:href="#path10_fill" transform="matrix(0.922549 -0.385881 0.385881 0.922549 3271 -1051.83)" fill="#FFFFFF"/>
</g>
<g id="Gift 2">
<use xlink:href="#path11_fill" transform="matrix(0.459478 -0.888189 0.888189 0.459478 3362 -1099.48)" fill="#FFFFFF"/>
</g>
<g id="Gift 4">
<use xlink:href="#path12_fill" transform="matrix(0.884901 0.46578 -0.46578 0.884901 3187.7 -1089)" fill="#FFFFFF"/>
</g>
<g id="45 deg">
<use xlink:href="#path13_fill" transform="matrix(0.922265 0.386559 -0.386559 0.922265 3216.8 -1107.9)" fill="#FFFFFF"/>
</g>
<g id="45 deg">
<use xlink:href="#path13_fill" transform="matrix(0.569812 0.821775 -0.821775 0.569812 3183.58 -1158.41)" fill="#FFFFFF"/>
</g>
<g id="90 deg">
<use xlink:href="#path14_fill" transform="matrix(-0.624855 0.780741 -0.780741 -0.624855 3225.16 -1242.99)" fill="#FFFFFF"/>
</g>
<g id="60 deg">
<use xlink:href="#path15_fill" transform="matrix(-0.4207 -0.9072 0.9072 -0.4207 3333.57 -1193.12)" fill="#FFFFFF"/>
</g>
<g id="30 deg">
<use xlink:href="#path16_fill" transform="matrix(-0.975047 -0.222 0.222 -0.975047 3301.08 -1247.16)" fill="#FFFFFF"/>
</g>
<g id="50 deg">
<use xlink:href="#path17_fill" transform="matrix(0.893652 -0.448761 0.448761 0.893652 3278 -1089.4)" fill="#FFFFFF"/>
</g>
<g id="40 deg">
<use xlink:href="#path18_fill" transform="matrix(0.348103 -0.937456 0.937456 0.348103 3337 -1123.31)" fill="#FFFFFF"/>
</g>
<g id="Gift 5">
<use xlink:href="#path19_fill" transform="matrix(0.484904 0.874568 -0.874568 0.484904 3141.23 -1165)" fill="#FFFFFF"/>
</g>
<g id="Gift65">
<use xlink:href="#path20_fill" transform="matrix(-0.636745 0.771075 -0.771075 -0.636745 3221.02 -1280.65)" fill="#FFFFFF"/>
</g>
</g>
</g>
</g>
<defs>
<path id="path0_fill" d="M 0 0L 400 0L 400 400L 0 400L 0 0Z"/>
<path id="path1_fill" fill-rule="evenodd" d="M 0 200L 0 0L 152.236 129.322C 115.617 172.481 61.012 199.9 0 200Z"/>
<path id="path2_fill" fill-rule="evenodd" d="M 152.609 128.882C 181.971 94.0739 199.667 49.1034 199.667 0L 0 0L 152.609 128.882Z"/>
<path id="path3_fill" fill-rule="evenodd" d="M 99.5996 -0.195312C 159.327 34.3242 199.546 98.8372 199.667 172.754L 0 172.754L 99.5996 -0.195312Z"/>
<path id="path4_fill" fill-rule="evenodd" d="M 99.895 26.8884L 0 199.667L 0 0C 36.3979 0.0593262 70.5159 9.84167 99.895 26.8884Z"/>
<path id="path5_fill" fill-rule="evenodd" d="M 200.167 0.00012207L 200.167 199.667L 0 199.667C 0.179932 89.363 89.6538 0 200 0C 200.055 0 200.111 0.00012207 200.167 0.00012207Z"/>
<path id="path6_fill" fill-rule="evenodd" d="M 141.624 200L 141.624 0L 0 141.219C 36.2087 177.531 86.2922 200 141.624 200Z"/>
<path id="path7_fill" fill-rule="evenodd" d="M 141.623 200L 141.623 0L 0 141.219C 36.2088 177.531 86.2922 200 141.623 200Z"/>
<path id="path8_fill" d="M 29.1562 40.5234C 28 42.1797 26.3828 43.4219 24.3047 44.25C 22.2422 45.0625 19.8359 45.4688 17.0859 45.4688C 14.3047 45.4688 11.8359 44.8203 9.67969 43.5234C 7.52344 42.2109 5.85156 40.3516 4.66406 37.9453C 3.49219 35.5391 2.89062 32.75 2.85938 29.5781L 2.85938 26.6016C 2.85938 21.4609 4.05469 17.4766 6.44531 14.6484C 8.85156 11.8203 12.2266 10.4062 16.5703 10.4062C 20.1328 10.4062 23 11.3203 25.1719 13.1484C 27.3438 14.9609 28.6719 17.5391 29.1562 20.8828L 24.6562 20.8828C 23.8125 16.3672 21.125 14.1094 16.5938 14.1094C 13.5781 14.1094 11.2891 15.1719 9.72656 17.2969C 8.17969 19.4062 7.39844 22.4688 7.38281 26.4844L 7.38281 29.2734C 7.38281 33.1016 8.25781 36.1484 10.0078 38.4141C 11.7578 40.6641 14.125 41.7891 17.1094 41.7891C 18.7969 41.7891 20.2734 41.6016 21.5391 41.2266C 22.8047 40.8516 23.8516 40.2188 24.6797 39.3281L 24.6797 31.6641L 16.7812 31.6641L 16.7812 28.0078L 29.1562 28.0078L 29.1562 40.5234ZM 40.7109 45L 36.375 45L 36.375 19.6406L 40.7109 19.6406L 40.7109 45ZM 36.0234 12.9141C 36.0234 12.2109 36.2344 11.6172 36.6562 11.1328C 37.0938 10.6484 37.7344 10.4062 38.5781 10.4062C 39.4219 10.4062 40.0625 10.6484 40.5 11.1328C 40.9375 11.6172 41.1562 12.2109 41.1562 12.9141C 41.1562 13.6172 40.9375 14.2031 40.5 14.6719C 40.0625 15.1406 39.4219 15.375 38.5781 15.375C 37.7344 15.375 37.0938 15.1406 36.6562 14.6719C 36.2344 14.2031 36.0234 13.6172 36.0234 12.9141ZM 49.8047 45L 49.8047 22.9922L 45.7969 22.9922L 45.7969 19.6406L 49.8047 19.6406L 49.8047 17.0391C 49.8047 14.3203 50.5312 12.2187 51.9844 10.7344C 53.4375 9.25 55.4922 8.50781 58.1484 8.50781C 59.1484 8.50781 60.1406 8.64063 61.125 8.90625L 60.8906 12.4219C 60.1562 12.2812 59.375 12.2109 58.5469 12.2109C 57.1406 12.2109 56.0547 12.625 55.2891 13.4531C 54.5234 14.2656 54.1406 15.4375 54.1406 16.9688L 54.1406 19.6406L 59.5547 19.6406L 59.5547 22.9922L 54.1406 22.9922L 54.1406 45L 49.8047 45ZM 70.2422 13.5L 70.2422 19.6406L 74.9766 19.6406L 74.9766 22.9922L 70.2422 22.9922L 70.2422 38.7188C 70.2422 39.7344 70.4531 40.5 70.875 41.0156C 71.2969 41.5156 72.0156 41.7656 73.0312 41.7656C 73.5312 41.7656 74.2188 41.6719 75.0938 41.4844L 75.0938 45C 73.9531 45.3125 72.8438 45.4688 71.7656 45.4688C 69.8281 45.4688 68.3672 44.8828 67.3828 43.7109C 66.3984 42.5391 65.9062 40.875 65.9062 38.7188L 65.9062 22.9922L 61.2891 22.9922L 61.2891 19.6406L 65.9062 19.6406L 65.9062 13.5L 70.2422 13.5ZM 105.773 45L 101.414 45L 101.414 16.1016L 92.6719 19.3125L 92.6719 15.375L 105.094 10.7109L 105.773 10.7109L 105.773 45Z"/>
<path id="path9_fill" d="M 14.5781 19.7617C 14 20.5898 13.1914 21.2109 12.1523 21.625C 11.1211 22.0312 9.91797 22.2344 8.54297 22.2344C 7.15234 22.2344 5.91797 21.9102 4.83984 21.2617C 3.76172 20.6055 2.92578 19.6758 2.33203 18.4727C 1.74609 17.2695 1.44531 15.875 1.42969 14.2891L 1.42969 12.8008C 1.42969 10.2305 2.02734 8.23828 3.22266 6.82422C 4.42578 5.41016 6.11328 4.70312 8.28516 4.70312C 10.0664 4.70312 11.5 5.16016 12.5859 6.07422C 13.6719 6.98047 14.3359 8.26953 14.5781 9.94141L 12.3281 9.94141C 11.9062 7.68359 10.5625 6.55469 8.29688 6.55469C 6.78906 6.55469 5.64453 7.08594 4.86328 8.14844C 4.08984 9.20312 3.69922 10.7344 3.69141 12.7422L 3.69141 14.1367C 3.69141 16.0508 4.12891 17.5742 5.00391 18.707C 5.87891 19.832 7.0625 20.3945 8.55469 20.3945C 9.39844 20.3945 10.1367 20.3008 10.7695 20.1133C 11.4023 19.9258 11.9258 19.6094 12.3398 19.1641L 12.3398 15.332L 8.39062 15.332L 8.39062 13.5039L 14.5781 13.5039L 14.5781 19.7617ZM 20.3555 22L 18.1875 22L 18.1875 9.32031L 20.3555 9.32031L 20.3555 22ZM 18.0117 5.95703C 18.0117 5.60547 18.1172 5.30859 18.3281 5.06641C 18.5469 4.82422 18.8672 4.70312 19.2891 4.70312C 19.7109 4.70312 20.0312 4.82422 20.25 5.06641C 20.4688 5.30859 20.5781 5.60547 20.5781 5.95703C 20.5781 6.30859 20.4688 6.60156 20.25 6.83594C 20.0312 7.07031 19.7109 7.1875 19.2891 7.1875C 18.8672 7.1875 18.5469 7.07031 18.3281 6.83594C 18.1172 6.60156 18.0117 6.30859 18.0117 5.95703ZM 24.9023 22L 24.9023 10.9961L 22.8984 10.9961L 22.8984 9.32031L 24.9023 9.32031L 24.9023 8.01953C 24.9023 6.66016 25.2656 5.60937 25.9922 4.86719C 26.7188 4.125 27.7461 3.75391 29.0742 3.75391C 29.5742 3.75391 30.0703 3.82031 30.5625 3.95312L 30.4453 5.71094C 30.0781 5.64062 29.6875 5.60547 29.2734 5.60547C 28.5703 5.60547 28.0273 5.8125 27.6445 6.22656C 27.2617 6.63281 27.0703 7.21875 27.0703 7.98438L 27.0703 9.32031L 29.7773 9.32031L 29.7773 10.9961L 27.0703 10.9961L 27.0703 22L 24.9023 22ZM 35.1211 6.25L 35.1211 9.32031L 37.4883 9.32031L 37.4883 10.9961L 35.1211 10.9961L 35.1211 18.8594C 35.1211 19.3672 35.2266 19.75 35.4375 20.0078C 35.6484 20.2578 36.0078 20.3828 36.5156 20.3828C 36.7656 20.3828 37.1094 20.3359 37.5469 20.2422L 37.5469 22C 36.9766 22.1562 36.4219 22.2344 35.8828 22.2344C 34.9141 22.2344 34.1836 21.9414 33.6914 21.3555C 33.1992 20.7695 32.9531 19.9375 32.9531 18.8594L 32.9531 10.9961L 30.6445 10.9961L 30.6445 9.32031L 32.9531 9.32031L 32.9531 6.25L 35.1211 6.25ZM 56.7773 6.15625L 49.7109 22L 47.4375 22L 54.4805 6.71875L 45.2461 6.71875L 45.2461 4.9375L 56.7773 4.9375L 56.7773 6.15625Z"/>
<path id="path10_fill" d="M 18.2227 25.2021C 17.5 26.2373 16.4893 27.0137 15.1904 27.5312C 13.9014 28.0391 12.3975 28.293 10.6787 28.293C 8.94043 28.293 7.39746 27.8877 6.0498 27.0771C 4.70215 26.2568 3.65723 25.0947 2.91504 23.5908C 2.18262 22.0869 1.80664 20.3438 1.78711 18.3613L 1.78711 16.501C 1.78711 13.2881 2.53418 10.7979 4.02832 9.03027C 5.53223 7.2627 7.6416 6.37891 10.3564 6.37891C 12.583 6.37891 14.375 6.9502 15.7324 8.09277C 17.0898 9.22559 17.9199 10.8369 18.2227 12.9268L 15.4102 12.9268C 14.8828 10.1045 13.2031 8.69336 10.3711 8.69336C 8.48633 8.69336 7.05566 9.35742 6.0791 10.6855C 5.1123 12.0039 4.62402 13.918 4.61426 16.4277L 4.61426 18.1709C 4.61426 20.5635 5.16113 22.4678 6.25488 23.8838C 7.34863 25.29 8.82812 25.9932 10.6934 25.9932C 11.748 25.9932 12.6709 25.876 13.4619 25.6416C 14.2529 25.4072 14.9072 25.0117 15.4248 24.4551L 15.4248 19.665L 10.4883 19.665L 10.4883 17.3799L 18.2227 17.3799L 18.2227 25.2021ZM 25.4443 28L 22.7344 28L 22.7344 12.1504L 25.4443 12.1504L 25.4443 28ZM 22.5146 7.94629C 22.5146 7.50684 22.6465 7.13574 22.9102 6.83301C 23.1836 6.53027 23.584 6.37891 24.1113 6.37891C 24.6387 6.37891 25.0391 6.53027 25.3125 6.83301C 25.5859 7.13574 25.7227 7.50684 25.7227 7.94629C 25.7227 8.38574 25.5859 8.75195 25.3125 9.04492C 25.0391 9.33789 24.6387 9.48438 24.1113 9.48438C 23.584 9.48438 23.1836 9.33789 22.9102 9.04492C 22.6465 8.75195 22.5146 8.38574 22.5146 7.94629ZM 31.1279 28L 31.1279 14.2451L 28.623 14.2451L 28.623 12.1504L 31.1279 12.1504L 31.1279 10.5244C 31.1279 8.8252 31.582 7.51172 32.4902 6.58398C 33.3984 5.65625 34.6826 5.19238 36.3428 5.19238C 36.9678 5.19238 37.5879 5.27539 38.2031 5.44141L 38.0566 7.63867C 37.5977 7.55078 37.1094 7.50684 36.5918 7.50684C 35.7129 7.50684 35.0342 7.76563 34.5557 8.2832C 34.0771 8.79102 33.8379 9.52344 33.8379 10.4805L 33.8379 12.1504L 37.2217 12.1504L 37.2217 14.2451L 33.8379 14.2451L 33.8379 28L 31.1279 28ZM 43.9014 8.3125L 43.9014 12.1504L 46.8604 12.1504L 46.8604 14.2451L 43.9014 14.2451L 43.9014 24.0742C 43.9014 24.709 44.0332 25.1875 44.2969 25.5098C 44.5605 25.8223 45.0098 25.9785 45.6445 25.9785C 45.957 25.9785 46.3867 25.9199 46.9336 25.8027L 46.9336 28C 46.2207 28.1953 45.5273 28.293 44.8535 28.293C 43.6426 28.293 42.7295 27.9268 42.1143 27.1943C 41.499 26.4619 41.1914 25.4219 41.1914 24.0742L 41.1914 14.2451L 38.3057 14.2451L 38.3057 12.1504L 41.1914 12.1504L 41.1914 8.3125L 43.9014 8.3125ZM 61.1426 16.0176L 63.1787 16.0176C 64.458 15.998 65.4639 15.6611 66.1963 15.0068C 66.9287 14.3525 67.2949 13.4688 67.2949 12.3555C 67.2949 9.85547 66.0498 8.60547 63.5596 8.60547C 62.3877 8.60547 61.4502 8.94238 60.7471 9.61621C 60.0537 10.2803 59.707 11.1641 59.707 12.2676L 56.9971 12.2676C 56.9971 10.5781 57.6123 9.17676 58.8428 8.06348C 60.083 6.94043 61.6553 6.37891 63.5596 6.37891C 65.5713 6.37891 67.1484 6.91113 68.291 7.97559C 69.4336 9.04004 70.0049 10.5195 70.0049 12.4141C 70.0049 13.3418 69.7021 14.2402 69.0967 15.1094C 68.501 15.9785 67.6855 16.6279 66.6504 17.0576C 67.8223 17.4287 68.7256 18.0439 69.3604 18.9033C 70.0049 19.7627 70.3271 20.8125 70.3271 22.0527C 70.3271 23.9668 69.7021 25.4854 68.4521 26.6084C 67.2021 27.7314 65.5762 28.293 63.5742 28.293C 61.5723 28.293 59.9414 27.751 58.6816 26.667C 57.4316 25.583 56.8066 24.1523 56.8066 22.375L 59.5312 22.375C 59.5312 23.498 59.8975 24.3965 60.6299 25.0703C 61.3623 25.7441 62.3438 26.0811 63.5742 26.0811C 64.8828 26.0811 65.8838 25.7393 66.5771 25.0557C 67.2705 24.3721 67.6172 23.3906 67.6172 22.1113C 67.6172 20.8711 67.2363 19.9189 66.4746 19.2549C 65.7129 18.5908 64.6143 18.249 63.1787 18.2295L 61.1426 18.2295L 61.1426 16.0176Z"/>
<path id="path11_fill" d="M 14.5781 19.7617C 14 20.5898 13.1914 21.2109 12.1523 21.625C 11.1211 22.0312 9.91797 22.2344 8.54297 22.2344C 7.15234 22.2344 5.91797 21.9102 4.83984 21.2617C 3.76172 20.6055 2.92578 19.6758 2.33203 18.4727C 1.74609 17.2695 1.44531 15.875 1.42969 14.2891L 1.42969 12.8008C 1.42969 10.2305 2.02734 8.23828 3.22266 6.82422C 4.42578 5.41016 6.11328 4.70312 8.28516 4.70312C 10.0664 4.70312 11.5 5.16016 12.5859 6.07422C 13.6719 6.98047 14.3359 8.26953 14.5781 9.94141L 12.3281 9.94141C 11.9062 7.68359 10.5625 6.55469 8.29688 6.55469C 6.78906 6.55469 5.64453 7.08594 4.86328 8.14844C 4.08984 9.20312 3.69922 10.7344 3.69141 12.7422L 3.69141 14.1367C 3.69141 16.0508 4.12891 17.5742 5.00391 18.707C 5.87891 19.832 7.0625 20.3945 8.55469 20.3945C 9.39844 20.3945 10.1367 20.3008 10.7695 20.1133C 11.4023 19.9258 11.9258 19.6094 12.3398 19.1641L 12.3398 15.332L 8.39062 15.332L 8.39062 13.5039L 14.5781 13.5039L 14.5781 19.7617ZM 20.3555 22L 18.1875 22L 18.1875 9.32031L 20.3555 9.32031L 20.3555 22ZM 18.0117 5.95703C 18.0117 5.60547 18.1172 5.30859 18.3281 5.06641C 18.5469 4.82422 18.8672 4.70312 19.2891 4.70312C 19.7109 4.70312 20.0312 4.82422 20.25 5.06641C 20.4688 5.30859 20.5781 5.60547 20.5781 5.95703C 20.5781 6.30859 20.4688 6.60156 20.25 6.83594C 20.0312 7.07031 19.7109 7.1875 19.2891 7.1875C 18.8672 7.1875 18.5469 7.07031 18.3281 6.83594C 18.1172 6.60156 18.0117 6.30859 18.0117 5.95703ZM 24.9023 22L 24.9023 10.9961L 22.8984 10.9961L 22.8984 9.32031L 24.9023 9.32031L 24.9023 8.01953C 24.9023 6.66016 25.2656 5.60937 25.9922 4.86719C 26.7188 4.125 27.7461 3.75391 29.0742 3.75391C 29.5742 3.75391 30.0703 3.82031 30.5625 3.95312L 30.4453 5.71094C 30.0781 5.64062 29.6875 5.60547 29.2734 5.60547C 28.5703 5.60547 28.0273 5.8125 27.6445 6.22656C 27.2617 6.63281 27.0703 7.21875 27.0703 7.98438L 27.0703 9.32031L 29.7773 9.32031L 29.7773 10.9961L 27.0703 10.9961L 27.0703 22L 24.9023 22ZM 35.1211 6.25L 35.1211 9.32031L 37.4883 9.32031L 37.4883 10.9961L 35.1211 10.9961L 35.1211 18.8594C 35.1211 19.3672 35.2266 19.75 35.4375 20.0078C 35.6484 20.2578 36.0078 20.3828 36.5156 20.3828C 36.7656 20.3828 37.1094 20.3359 37.5469 20.2422L 37.5469 22C 36.9766 22.1562 36.4219 22.2344 35.8828 22.2344C 34.9141 22.2344 34.1836 21.9414 33.6914 21.3555C 33.1992 20.7695 32.9531 19.9375 32.9531 18.8594L 32.9531 10.9961L 30.6445 10.9961L 30.6445 9.32031L 32.9531 9.32031L 32.9531 6.25L 35.1211 6.25ZM 56.9414 22L 45.7617 22L 45.7617 20.4414L 51.668 13.8789C 52.543 12.8867 53.1445 12.082 53.4727 11.4648C 53.8086 10.8398 53.9766 10.1953 53.9766 9.53125C 53.9766 8.64062 53.707 7.91016 53.168 7.33984C 52.6289 6.76953 51.9102 6.48438 51.0117 6.48438C 49.9336 6.48438 49.0938 6.79297 48.4922 7.41016C 47.8984 8.01953 47.6016 8.87109 47.6016 9.96484L 45.4336 9.96484C 45.4336 8.39453 45.9375 7.125 46.9453 6.15625C 47.9609 5.1875 49.3164 4.70312 51.0117 4.70312C 52.5977 4.70312 53.8516 5.12109 54.7734 5.95703C 55.6953 6.78516 56.1562 7.89062 56.1562 9.27344C 56.1562 10.9531 55.0859 12.9531 52.9453 15.2734L 48.375 20.2305L 56.9414 20.2305L 56.9414 22Z"/>
<path id="path12_fill" d="M 19.4375 27.0156C 18.6667 28.1198 17.5885 28.9479 16.2031 29.5C 14.8281 30.0417 13.224 30.3125 11.3906 30.3125C 9.53646 30.3125 7.89062 29.8802 6.45312 29.0156C 5.01562 28.1406 3.90104 26.901 3.10938 25.2969C 2.32812 23.6927 1.92708 21.8333 1.90625 19.7188L 1.90625 17.7344C 1.90625 14.3073 2.70312 11.651 4.29688 9.76562C 5.90104 7.88021 8.15104 6.9375 11.0469 6.9375C 13.4219 6.9375 15.3333 7.54688 16.7812 8.76562C 18.2292 9.97396 19.1146 11.6927 19.4375 13.9219L 16.4375 13.9219C 15.875 10.9115 14.0833 9.40625 11.0625 9.40625C 9.05208 9.40625 7.52604 10.1146 6.48438 11.5312C 5.45312 12.9375 4.93229 14.9792 4.92188 17.6562L 4.92188 19.5156C 4.92188 22.0677 5.50521 24.099 6.67188 25.6094C 7.83854 27.1094 9.41667 27.8594 11.4062 27.8594C 12.5312 27.8594 13.5156 27.7344 14.3594 27.4844C 15.2031 27.2344 15.901 26.8125 16.4531 26.2188L 16.4531 21.1094L 11.1875 21.1094L 11.1875 18.6719L 19.4375 18.6719L 19.4375 27.0156ZM 27.1406 30L 24.25 30L 24.25 13.0938L 27.1406 13.0938L 27.1406 30ZM 24.0156 8.60938C 24.0156 8.14062 24.1562 7.74479 24.4375 7.42188C 24.7292 7.09896 25.1562 6.9375 25.7188 6.9375C 26.2812 6.9375 26.7083 7.09896 27 7.42188C 27.2917 7.74479 27.4375 8.14062 27.4375 8.60938C 27.4375 9.07812 27.2917 9.46875 27 9.78125C 26.7083 10.0938 26.2812 10.25 25.7188 10.25C 25.1562 10.25 24.7292 10.0938 24.4375 9.78125C 24.1562 9.46875 24.0156 9.07812 24.0156 8.60938ZM 33.2031 30L 33.2031 15.3281L 30.5312 15.3281L 30.5312 13.0938L 33.2031 13.0938L 33.2031 11.3594C 33.2031 9.54688 33.6875 8.14583 34.6562 7.15625C 35.625 6.16667 36.9948 5.67188 38.7656 5.67188C 39.4323 5.67188 40.0938 5.76042 40.75 5.9375L 40.5938 8.28125C 40.1042 8.1875 39.5833 8.14062 39.0312 8.14062C 38.0938 8.14062 37.3698 8.41667 36.8594 8.96875C 36.349 9.51042 36.0938 10.2917 36.0938 11.3125L 36.0938 13.0938L 39.7031 13.0938L 39.7031 15.3281L 36.0938 15.3281L 36.0938 30L 33.2031 30ZM 46.8281 9L 46.8281 13.0938L 49.9844 13.0938L 49.9844 15.3281L 46.8281 15.3281L 46.8281 25.8125C 46.8281 26.4896 46.9688 27 47.25 27.3438C 47.5312 27.6771 48.0104 27.8438 48.6875 27.8438C 49.0208 27.8438 49.4792 27.7812 50.0625 27.6562L 50.0625 30C 49.3021 30.2083 48.5625 30.3125 47.8438 30.3125C 46.5521 30.3125 45.5781 29.9219 44.9219 29.1406C 44.2656 28.3594 43.9375 27.25 43.9375 25.8125L 43.9375 15.3281L 40.8594 15.3281L 40.8594 13.0938L 43.9375 13.0938L 43.9375 9L 46.8281 9ZM 73.2188 22.3594L 76.375 22.3594L 76.375 24.7188L 73.2188 24.7188L 73.2188 30L 70.3125 30L 70.3125 24.7188L 59.9531 24.7188L 59.9531 23.0156L 70.1406 7.25L 73.2188 7.25L 73.2188 22.3594ZM 63.2344 22.3594L 70.3125 22.3594L 70.3125 11.2031L 69.9688 11.8281L 63.2344 22.3594Z"/>
<path id="path13_fill" d="M 5.28516 8.13477L 6.46875 8.13477L 6.46875 9.01953L 5.28516 9.01953L 5.28516 11L 4.19531 11L 4.19531 9.01953L 0.310547 9.01953L 0.310547 8.38086L 4.13086 2.46875L 5.28516 2.46875L 5.28516 8.13477ZM 1.54102 8.13477L 4.19531 8.13477L 4.19531 3.95117L 4.06641 4.18555L 1.54102 8.13477ZM 7.94531 6.72266L 8.37891 2.46875L 12.75 2.46875L 12.75 3.4707L 9.29883 3.4707L 9.04102 5.79688C 9.45898 5.55078 9.93359 5.42773 10.4648 5.42773C 11.2422 5.42773 11.8594 5.68555 12.3164 6.20117C 12.7734 6.71289 13.002 7.40625 13.002 8.28125C 13.002 9.16016 12.7637 9.85352 12.2871 10.3613C 11.8145 10.8652 11.1523 11.1172 10.3008 11.1172C 9.54688 11.1172 8.93164 10.9082 8.45508 10.4902C 7.97852 10.0723 7.70703 9.49414 7.64062 8.75586L 8.66602 8.75586C 8.73242 9.24414 8.90625 9.61328 9.1875 9.86328C 9.46875 10.1094 9.83984 10.2324 10.3008 10.2324C 10.8047 10.2324 11.1992 10.0605 11.4844 9.7168C 11.7734 9.37305 11.918 8.89844 11.918 8.29297C 11.918 7.72266 11.7617 7.26562 11.4492 6.92188C 11.1406 6.57422 10.7285 6.40039 10.2129 6.40039C 9.74023 6.40039 9.36914 6.50391 9.09961 6.71094L 8.8125 6.94531L 7.94531 6.72266ZM 17.0098 7.77734C 17.0098 6.80469 17.2402 6.02344 17.7012 5.43359C 18.1621 4.83984 18.7656 4.54297 19.5117 4.54297C 20.2539 4.54297 20.8418 4.79688 21.2754 5.30469L 21.2754 2L 22.3594 2L 22.3594 11L 21.3633 11L 21.3105 10.3203C 20.877 10.8516 20.2734 11.1172 19.5 11.1172C 18.7656 11.1172 18.166 10.8164 17.7012 10.2148C 17.2402 9.61328 17.0098 8.82812 17.0098 7.85938L 17.0098 7.77734ZM 18.0938 7.90039C 18.0938 8.61914 18.2422 9.18164 18.5391 9.58789C 18.8359 9.99414 19.2461 10.1973 19.7695 10.1973C 20.457 10.1973 20.959 9.88867 21.2754 9.27148L 21.2754 6.35938C 20.9512 5.76172 20.4531 5.46289 19.7812 5.46289C 19.25 5.46289 18.8359 5.66797 18.5391 6.07812C 18.2422 6.48828 18.0938 7.0957 18.0938 7.90039ZM 26.6777 11.1172C 25.8184 11.1172 25.1191 10.8359 24.5801 10.2734C 24.041 9.70703 23.7715 8.95117 23.7715 8.00586L 23.7715 7.80664C 23.7715 7.17773 23.8906 6.61719 24.1289 6.125C 24.3711 5.62891 24.707 5.24219 25.1367 4.96484C 25.5703 4.68359 26.0391 4.54297 26.543 4.54297C 27.3672 4.54297 28.0078 4.81445 28.4648 5.35742C 28.9219 5.90039 29.1504 6.67773 29.1504 7.68945L 29.1504 8.14062L 24.8555 8.14062C 24.8711 8.76562 25.0527 9.27148 25.4004 9.6582C 25.752 10.041 26.1973 10.2324 26.7363 10.2324C 27.1191 10.2324 27.4434 10.1543 27.709 9.99805C 27.9746 9.8418 28.207 9.63477 28.4062 9.37695L 29.0684 9.89258C 28.5371 10.709 27.7402 11.1172 26.6777 11.1172ZM 26.543 5.43359C 26.1055 5.43359 25.7383 5.59375 25.4414 5.91406C 25.1445 6.23047 24.9609 6.67578 24.8906 7.25L 28.0664 7.25L 28.0664 7.16797C 28.0352 6.61719 27.8867 6.19141 27.6211 5.89062C 27.3555 5.58594 26.9961 5.43359 26.543 5.43359ZM 30.1523 7.77734C 30.1523 6.78906 30.3809 6.00391 30.8379 5.42188C 31.2949 4.83594 31.9004 4.54297 32.6543 4.54297C 33.4277 4.54297 34.0312 4.81641 34.4648 5.36328L 34.5176 4.66016L 35.5078 4.66016L 35.5078 10.8477C 35.5078 11.668 35.2637 12.3145 34.7754 12.7871C 34.291 13.2598 33.6387 13.4961 32.8184 13.4961C 32.3613 13.4961 31.9141 13.3984 31.4766 13.2031C 31.0391 13.0078 30.7051 12.7402 30.4746 12.4004L 31.0371 11.75C 31.502 12.3242 32.0703 12.6113 32.7422 12.6113C 33.2695 12.6113 33.6797 12.4629 33.9727 12.166C 34.2695 11.8691 34.418 11.4512 34.418 10.9121L 34.418 10.3672C 33.9844 10.8672 33.3926 11.1172 32.6426 11.1172C 31.9004 11.1172 31.2988 10.8184 30.8379 10.2207C 30.3809 9.62305 30.1523 8.80859 30.1523 7.77734ZM 31.2422 7.90039C 31.2422 8.61523 31.3887 9.17773 31.6816 9.58789C 31.9746 9.99414 32.3848 10.1973 32.9121 10.1973C 33.5957 10.1973 34.0977 9.88672 34.418 9.26562L 34.418 6.37109C 34.0859 5.76562 33.5879 5.46289 32.9238 5.46289C 32.3965 5.46289 31.9844 5.66797 31.6875 6.07812C 31.3906 6.48828 31.2422 7.0957 31.2422 7.90039Z"/>
<path id="path14_fill" d="M 4.86328 7.25C 4.63672 7.51953 4.36523 7.73633 4.04883 7.90039C 3.73633 8.06445 3.39258 8.14648 3.01758 8.14648C 2.52539 8.14648 2.0957 8.02539 1.72852 7.7832C 1.36523 7.54102 1.08398 7.20117 0.884766 6.76367C 0.685547 6.32227 0.585938 5.83594 0.585938 5.30469C 0.585938 4.73438 0.693359 4.2207 0.908203 3.76367C 1.12695 3.30664 1.43555 2.95703 1.83398 2.71484C 2.23242 2.47266 2.69727 2.35156 3.22852 2.35156C 4.07227 2.35156 4.73633 2.66797 5.2207 3.30078C 5.70898 3.92969 5.95312 4.78906 5.95312 5.87891L 5.95312 6.19531C 5.95312 7.85547 5.625 9.06836 4.96875 9.83398C 4.3125 10.5957 3.32227 10.9863 1.99805 11.0059L 1.78711 11.0059L 1.78711 10.0918L 2.01562 10.0918C 2.91016 10.0762 3.59766 9.84375 4.07812 9.39453C 4.55859 8.94141 4.82031 8.22656 4.86328 7.25ZM 3.19336 7.25C 3.55664 7.25 3.89062 7.13867 4.19531 6.91602C 4.50391 6.69336 4.72852 6.41797 4.86914 6.08984L 4.86914 5.65625C 4.86914 4.94531 4.71484 4.36719 4.40625 3.92188C 4.09766 3.47656 3.70703 3.25391 3.23438 3.25391C 2.75781 3.25391 2.375 3.4375 2.08594 3.80469C 1.79688 4.16797 1.65234 4.64844 1.65234 5.24609C 1.65234 5.82812 1.79102 6.30859 2.06836 6.6875C 2.34961 7.0625 2.72461 7.25 3.19336 7.25ZM 12.7969 7.36133C 12.7969 8.63086 12.5801 9.57422 12.1465 10.1914C 11.7129 10.8086 11.0352 11.1172 10.1133 11.1172C 9.20312 11.1172 8.5293 10.8164 8.0918 10.2148C 7.6543 9.60938 7.42773 8.70703 7.41211 7.50781L 7.41211 6.06055C 7.41211 4.80664 7.62891 3.875 8.0625 3.26562C 8.49609 2.65625 9.17578 2.35156 10.1016 2.35156C 11.0195 2.35156 11.6953 2.64648 12.1289 3.23633C 12.5625 3.82227 12.7852 4.72852 12.7969 5.95508L 12.7969 7.36133ZM 11.7129 5.87891C 11.7129 4.96094 11.584 4.29297 11.3262 3.875C 11.0684 3.45312 10.6602 3.24219 10.1016 3.24219C 9.54688 3.24219 9.14258 3.45117 8.88867 3.86914C 8.63477 4.28711 8.50391 4.92969 8.49609 5.79688L 8.49609 7.53125C 8.49609 8.45312 8.62891 9.13477 8.89453 9.57617C 9.16406 10.0137 9.57031 10.2324 10.1133 10.2324C 10.6484 10.2324 11.0449 10.0254 11.3027 9.61133C 11.5645 9.19727 11.7012 8.54492 11.7129 7.6543L 11.7129 5.87891ZM 17.0098 7.77734C 17.0098 6.80469 17.2402 6.02344 17.7012 5.43359C 18.1621 4.83984 18.7656 4.54297 19.5117 4.54297C 20.2539 4.54297 20.8418 4.79688 21.2754 5.30469L 21.2754 2L 22.3594 2L 22.3594 11L 21.3633 11L 21.3105 10.3203C 20.877 10.8516 20.2734 11.1172 19.5 11.1172C 18.7656 11.1172 18.166 10.8164 17.7012 10.2148C 17.2402 9.61328 17.0098 8.82812 17.0098 7.85938L 17.0098 7.77734ZM 18.0938 7.90039C 18.0938 8.61914 18.2422 9.18164 18.5391 9.58789C 18.8359 9.99414 19.2461 10.1973 19.7695 10.1973C 20.457 10.1973 20.959 9.88867 21.2754 9.27148L 21.2754 6.35938C 20.9512 5.76172 20.4531 5.46289 19.7812 5.46289C 19.25 5.46289 18.8359 5.66797 18.5391 6.07812C 18.2422 6.48828 18.0938 7.0957 18.0938 7.90039ZM 26.6777 11.1172C 25.8184 11.1172 25.1191 10.8359 24.5801 10.2734C 24.041 9.70703 23.7715 8.95117 23.7715 8.00586L 23.7715 7.80664C 23.7715 7.17773 23.8906 6.61719 24.1289 6.125C 24.3711 5.62891 24.707 5.24219 25.1367 4.96484C 25.5703 4.68359 26.0391 4.54297 26.543 4.54297C 27.3672 4.54297 28.0078 4.81445 28.4648 5.35742C 28.9219 5.90039 29.1504 6.67773 29.1504 7.68945L 29.1504 8.14062L 24.8555 8.14062C 24.8711 8.76562 25.0527 9.27148 25.4004 9.6582C 25.752 10.041 26.1973 10.2324 26.7363 10.2324C 27.1191 10.2324 27.4434 10.1543 27.709 9.99805C 27.9746 9.8418 28.207 9.63477 28.4062 9.37695L 29.0684 9.89258C 28.5371 10.709 27.7402 11.1172 26.6777 11.1172ZM 26.543 5.43359C 26.1055 5.43359 25.7383 5.59375 25.4414 5.91406C 25.1445 6.23047 24.9609 6.67578 24.8906 7.25L 28.0664 7.25L 28.0664 7.16797C 28.0352 6.61719 27.8867 6.19141 27.6211 5.89062C 27.3555 5.58594 26.9961 5.43359 26.543 5.43359ZM 30.1523 7.77734C 30.1523 6.78906 30.3809 6.00391 30.8379 5.42188C 31.2949 4.83594 31.9004 4.54297 32.6543 4.54297C 33.4277 4.54297 34.0312 4.81641 34.4648 5.36328L 34.5176 4.66016L 35.5078 4.66016L 35.5078 10.8477C 35.5078 11.668 35.2637 12.3145 34.7754 12.7871C 34.291 13.2598 33.6387 13.4961 32.8184 13.4961C 32.3613 13.4961 31.9141 13.3984 31.4766 13.2031C 31.0391 13.0078 30.7051 12.7402 30.4746 12.4004L 31.0371 11.75C 31.502 12.3242 32.0703 12.6113 32.7422 12.6113C 33.2695 12.6113 33.6797 12.4629 33.9727 12.166C 34.2695 11.8691 34.418 11.4512 34.418 10.9121L 34.418 10.3672C 33.9844 10.8672 33.3926 11.1172 32.6426 11.1172C 31.9004 11.1172 31.2988 10.8184 30.8379 10.2207C 30.3809 9.62305 30.1523 8.80859 30.1523 7.77734ZM 31.2422 7.90039C 31.2422 8.61523 31.3887 9.17773 31.6816 9.58789C 31.9746 9.99414 32.3848 10.1973 32.9121 10.1973C 33.5957 10.1973 34.0977 9.88672 34.418 9.26562L 34.418 6.37109C 34.0859 5.76562 33.5879 5.46289 32.9238 5.46289C 32.3965 5.46289 31.9844 5.66797 31.6875 6.07812C 31.3906 6.48828 31.2422 7.0957 31.2422 7.90039Z"/>
<path id="path15_fill" d="M 4.96289 2.46289L 4.96289 3.38281L 4.76367 3.38281C 3.91992 3.39844 3.24805 3.64844 2.74805 4.13281C 2.24805 4.61719 1.95898 5.29883 1.88086 6.17773C 2.33008 5.66211 2.94336 5.4043 3.7207 5.4043C 4.46289 5.4043 5.05469 5.66602 5.49609 6.18945C 5.94141 6.71289 6.16406 7.38867 6.16406 8.2168C 6.16406 9.0957 5.92383 9.79883 5.44336 10.3262C 4.9668 10.8535 4.32617 11.1172 3.52148 11.1172C 2.70508 11.1172 2.04297 10.8047 1.53516 10.1797C 1.02734 9.55078 0.773438 8.74219 0.773438 7.75391L 0.773438 7.33789C 0.773438 5.76758 1.10742 4.56836 1.77539 3.74023C 2.44727 2.9082 3.44531 2.48242 4.76953 2.46289L 4.96289 2.46289ZM 3.53906 6.30664C 3.16797 6.30664 2.82617 6.41797 2.51367 6.64062C 2.20117 6.86328 1.98438 7.14258 1.86328 7.47852L 1.86328 7.87695C 1.86328 8.58008 2.02148 9.14648 2.33789 9.57617C 2.6543 10.0059 3.04883 10.2207 3.52148 10.2207C 4.00977 10.2207 4.39258 10.041 4.66992 9.68164C 4.95117 9.32227 5.0918 8.85156 5.0918 8.26953C 5.0918 7.68359 4.94922 7.21094 4.66406 6.85156C 4.38281 6.48828 4.00781 6.30664 3.53906 6.30664ZM 12.7969 7.36133C 12.7969 8.63086 12.5801 9.57422 12.1465 10.1914C 11.7129 10.8086 11.0352 11.1172 10.1133 11.1172C 9.20312 11.1172 8.5293 10.8164 8.0918 10.2148C 7.6543 9.60938 7.42773 8.70703 7.41211 7.50781L 7.41211 6.06055C 7.41211 4.80664 7.62891 3.875 8.0625 3.26562C 8.49609 2.65625 9.17578 2.35156 10.1016 2.35156C 11.0195 2.35156 11.6953 2.64648 12.1289 3.23633C 12.5625 3.82227 12.7852 4.72852 12.7969 5.95508L 12.7969 7.36133ZM 11.7129 5.87891C 11.7129 4.96094 11.584 4.29297 11.3262 3.875C 11.0684 3.45312 10.6602 3.24219 10.1016 3.24219C 9.54688 3.24219 9.14258 3.45117 8.88867 3.86914C 8.63477 4.28711 8.50391 4.92969 8.49609 5.79688L 8.49609 7.53125C 8.49609 8.45312 8.62891 9.13477 8.89453 9.57617C 9.16406 10.0137 9.57031 10.2324 10.1133 10.2324C 10.6484 10.2324 11.0449 10.0254 11.3027 9.61133C 11.5645 9.19727 11.7012 8.54492 11.7129 7.6543L 11.7129 5.87891ZM 17.0098 7.77734C 17.0098 6.80469 17.2402 6.02344 17.7012 5.43359C 18.1621 4.83984 18.7656 4.54297 19.5117 4.54297C 20.2539 4.54297 20.8418 4.79688 21.2754 5.30469L 21.2754 2L 22.3594 2L 22.3594 11L 21.3633 11L 21.3105 10.3203C 20.877 10.8516 20.2734 11.1172 19.5 11.1172C 18.7656 11.1172 18.166 10.8164 17.7012 10.2148C 17.2402 9.61328 17.0098 8.82812 17.0098 7.85938L 17.0098 7.77734ZM 18.0938 7.90039C 18.0938 8.61914 18.2422 9.18164 18.5391 9.58789C 18.8359 9.99414 19.2461 10.1973 19.7695 10.1973C 20.457 10.1973 20.959 9.88867 21.2754 9.27148L 21.2754 6.35938C 20.9512 5.76172 20.4531 5.46289 19.7812 5.46289C 19.25 5.46289 18.8359 5.66797 18.5391 6.07812C 18.2422 6.48828 18.0938 7.0957 18.0938 7.90039ZM 26.6777 11.1172C 25.8184 11.1172 25.1191 10.8359 24.5801 10.2734C 24.041 9.70703 23.7715 8.95117 23.7715 8.00586L 23.7715 7.80664C 23.7715 7.17773 23.8906 6.61719 24.1289 6.125C 24.3711 5.62891 24.707 5.24219 25.1367 4.96484C 25.5703 4.68359 26.0391 4.54297 26.543 4.54297C 27.3672 4.54297 28.0078 4.81445 28.4648 5.35742C 28.9219 5.90039 29.1504 6.67773 29.1504 7.68945L 29.1504 8.14062L 24.8555 8.14062C 24.8711 8.76562 25.0527 9.27148 25.4004 9.6582C 25.752 10.041 26.1973 10.2324 26.7363 10.2324C 27.1191 10.2324 27.4434 10.1543 27.709 9.99805C 27.9746 9.8418 28.207 9.63477 28.4062 9.37695L 29.0684 9.89258C 28.5371 10.709 27.7402 11.1172 26.6777 11.1172ZM 26.543 5.43359C 26.1055 5.43359 25.7383 5.59375 25.4414 5.91406C 25.1445 6.23047 24.9609 6.67578 24.8906 7.25L 28.0664 7.25L 28.0664 7.16797C 28.0352 6.61719 27.8867 6.19141 27.6211 5.89062C 27.3555 5.58594 26.9961 5.43359 26.543 5.43359ZM 30.1523 7.77734C 30.1523 6.78906 30.3809 6.00391 30.8379 5.42188C 31.2949 4.83594 31.9004 4.54297 32.6543 4.54297C 33.4277 4.54297 34.0312 4.81641 34.4648 5.36328L 34.5176 4.66016L 35.5078 4.66016L 35.5078 10.8477C 35.5078 11.668 35.2637 12.3145 34.7754 12.7871C 34.291 13.2598 33.6387 13.4961 32.8184 13.4961C 32.3613 13.4961 31.9141 13.3984 31.4766 13.2031C 31.0391 13.0078 30.7051 12.7402 30.4746 12.4004L 31.0371 11.75C 31.502 12.3242 32.0703 12.6113 32.7422 12.6113C 33.2695 12.6113 33.6797 12.4629 33.9727 12.166C 34.2695 11.8691 34.418 11.4512 34.418 10.9121L 34.418 10.3672C 33.9844 10.8672 33.3926 11.1172 32.6426 11.1172C 31.9004 11.1172 31.2988 10.8184 30.8379 10.2207C 30.3809 9.62305 30.1523 8.80859 30.1523 7.77734ZM 31.2422 7.90039C 31.2422 8.61523 31.3887 9.17773 31.6816 9.58789C 31.9746 9.99414 32.3848 10.1973 32.9121 10.1973C 33.5957 10.1973 34.0977 9.88672 34.418 9.26562L 34.418 6.37109C 34.0859 5.76562 33.5879 5.46289 32.9238 5.46289C 32.3965 5.46289 31.9844 5.66797 31.6875 6.07812C 31.3906 6.48828 31.2422 7.0957 31.2422 7.90039Z"/>
<path id="path16_fill" d="M 2.28516 6.20703L 3.09961 6.20703C 3.61133 6.19922 4.01367 6.06445 4.30664 5.80273C 4.59961 5.54102 4.74609 5.1875 4.74609 4.74219C 4.74609 3.74219 4.24805 3.24219 3.25195 3.24219C 2.7832 3.24219 2.4082 3.37695 2.12695 3.64648C 1.84961 3.91211 1.71094 4.26562 1.71094 4.70703L 0.626953 4.70703C 0.626953 4.03125 0.873047 3.4707 1.36523 3.02539C 1.86133 2.57617 2.49023 2.35156 3.25195 2.35156C 4.05664 2.35156 4.6875 2.56445 5.14453 2.99023C 5.60156 3.41602 5.83008 4.00781 5.83008 4.76562C 5.83008 5.13672 5.70898 5.49609 5.4668 5.84375C 5.22852 6.19141 4.90234 6.45117 4.48828 6.62305C 4.95703 6.77148 5.31836 7.01758 5.57227 7.36133C 5.83008 7.70508 5.95898 8.125 5.95898 8.62109C 5.95898 9.38672 5.70898 9.99414 5.20898 10.4434C 4.70898 10.8926 4.05859 11.1172 3.25781 11.1172C 2.45703 11.1172 1.80469 10.9004 1.30078 10.4668C 0.800781 10.0332 0.550781 9.46094 0.550781 8.75L 1.64062 8.75C 1.64062 9.19922 1.78711 9.55859 2.08008 9.82812C 2.37305 10.0977 2.76562 10.2324 3.25781 10.2324C 3.78125 10.2324 4.18164 10.0957 4.45898 9.82227C 4.73633 9.54883 4.875 9.15625 4.875 8.64453C 4.875 8.14844 4.72266 7.76758 4.41797 7.50195C 4.11328 7.23633 3.67383 7.09961 3.09961 7.0918L 2.28516 7.0918L 2.28516 6.20703ZM 12.7969 7.36133C 12.7969 8.63086 12.5801 9.57422 12.1465 10.1914C 11.7129 10.8086 11.0352 11.1172 10.1133 11.1172C 9.20312 11.1172 8.5293 10.8164 8.0918 10.2148C 7.6543 9.60938 7.42773 8.70703 7.41211 7.50781L 7.41211 6.06055C 7.41211 4.80664 7.62891 3.875 8.0625 3.26562C 8.49609 2.65625 9.17578 2.35156 10.1016 2.35156C 11.0195 2.35156 11.6953 2.64648 12.1289 3.23633C 12.5625 3.82227 12.7852 4.72852 12.7969 5.95508L 12.7969 7.36133ZM 11.7129 5.87891C 11.7129 4.96094 11.584 4.29297 11.3262 3.875C 11.0684 3.45312 10.6602 3.24219 10.1016 3.24219C 9.54688 3.24219 9.14258 3.45117 8.88867 3.86914C 8.63477 4.28711 8.50391 4.92969 8.49609 5.79688L 8.49609 7.53125C 8.49609 8.45312 8.62891 9.13477 8.89453 9.57617C 9.16406 10.0137 9.57031 10.2324 10.1133 10.2324C 10.6484 10.2324 11.0449 10.0254 11.3027 9.61133C 11.5645 9.19727 11.7012 8.54492 11.7129 7.6543L 11.7129 5.87891ZM 17.0098 7.77734C 17.0098 6.80469 17.2402 6.02344 17.7012 5.43359C 18.1621 4.83984 18.7656 4.54297 19.5117 4.54297C 20.2539 4.54297 20.8418 4.79688 21.2754 5.30469L 21.2754 2L 22.3594 2L 22.3594 11L 21.3633 11L 21.3105 10.3203C 20.877 10.8516 20.2734 11.1172 19.5 11.1172C 18.7656 11.1172 18.166 10.8164 17.7012 10.2148C 17.2402 9.61328 17.0098 8.82812 17.0098 7.85938L 17.0098 7.77734ZM 18.0938 7.90039C 18.0938 8.61914 18.2422 9.18164 18.5391 9.58789C 18.8359 9.99414 19.2461 10.1973 19.7695 10.1973C 20.457 10.1973 20.959 9.88867 21.2754 9.27148L 21.2754 6.35938C 20.9512 5.76172 20.4531 5.46289 19.7812 5.46289C 19.25 5.46289 18.8359 5.66797 18.5391 6.07812C 18.2422 6.48828 18.0938 7.0957 18.0938 7.90039ZM 26.6777 11.1172C 25.8184 11.1172 25.1191 10.8359 24.5801 10.2734C 24.041 9.70703 23.7715 8.95117 23.7715 8.00586L 23.7715 7.80664C 23.7715 7.17773 23.8906 6.61719 24.1289 6.125C 24.3711 5.62891 24.707 5.24219 25.1367 4.96484C 25.5703 4.68359 26.0391 4.54297 26.543 4.54297C 27.3672 4.54297 28.0078 4.81445 28.4648 5.35742C 28.9219 5.90039 29.1504 6.67773 29.1504 7.68945L 29.1504 8.14062L 24.8555 8.14062C 24.8711 8.76562 25.0527 9.27148 25.4004 9.6582C 25.752 10.041 26.1973 10.2324 26.7363 10.2324C 27.1191 10.2324 27.4434 10.1543 27.709 9.99805C 27.9746 9.8418 28.207 9.63477 28.4062 9.37695L 29.0684 9.89258C 28.5371 10.709 27.7402 11.1172 26.6777 11.1172ZM 26.543 5.43359C 26.1055 5.43359 25.7383 5.59375 25.4414 5.91406C 25.1445 6.23047 24.9609 6.67578 24.8906 7.25L 28.0664 7.25L 28.0664 7.16797C 28.0352 6.61719 27.8867 6.19141 27.6211 5.89062C 27.3555 5.58594 26.9961 5.43359 26.543 5.43359ZM 30.1523 7.77734C 30.1523 6.78906 30.3809 6.00391 30.8379 5.42188C 31.2949 4.83594 31.9004 4.54297 32.6543 4.54297C 33.4277 4.54297 34.0312 4.81641 34.4648 5.36328L 34.5176 4.66016L 35.5078 4.66016L 35.5078 10.8477C 35.5078 11.668 35.2637 12.3145 34.7754 12.7871C 34.291 13.2598 33.6387 13.4961 32.8184 13.4961C 32.3613 13.4961 31.9141 13.3984 31.4766 13.2031C 31.0391 13.0078 30.7051 12.7402 30.4746 12.4004L 31.0371 11.75C 31.502 12.3242 32.0703 12.6113 32.7422 12.6113C 33.2695 12.6113 33.6797 12.4629 33.9727 12.166C 34.2695 11.8691 34.418 11.4512 34.418 10.9121L 34.418 10.3672C 33.9844 10.8672 33.3926 11.1172 32.6426 11.1172C 31.9004 11.1172 31.2988 10.8184 30.8379 10.2207C 30.3809 9.62305 30.1523 8.80859 30.1523 7.77734ZM 31.2422 7.90039C 31.2422 8.61523 31.3887 9.17773 31.6816 9.58789C 31.9746 9.99414 32.3848 10.1973 32.9121 10.1973C 33.5957 10.1973 34.0977 9.88672 34.418 9.26562L 34.418 6.37109C 34.0859 5.76562 33.5879 5.46289 32.9238 5.46289C 32.3965 5.46289 31.9844 5.66797 31.6875 6.07812C 31.3906 6.48828 31.2422 7.0957 31.2422 7.90039Z"/>
<path id="path17_fill" d="M 1.20703 6.72266L 1.64062 2.46875L 6.01172 2.46875L 6.01172 3.4707L 2.56055 3.4707L 2.30273 5.79688C 2.7207 5.55078 3.19531 5.42773 3.72656 5.42773C 4.50391 5.42773 5.12109 5.68555 5.57812 6.20117C 6.03516 6.71289 6.26367 7.40625 6.26367 8.28125C 6.26367 9.16016 6.02539 9.85352 5.54883 10.3613C 5.07617 10.8652 4.41406 11.1172 3.5625 11.1172C 2.80859 11.1172 2.19336 10.9082 1.7168 10.4902C 1.24023 10.0723 0.96875 9.49414 0.902344 8.75586L 1.92773 8.75586C 1.99414 9.24414 2.16797 9.61328 2.44922 9.86328C 2.73047 10.1094 3.10156 10.2324 3.5625 10.2324C 4.06641 10.2324 4.46094 10.0605 4.74609 9.7168C 5.03516 9.37305 5.17969 8.89844 5.17969 8.29297C 5.17969 7.72266 5.02344 7.26562 4.71094 6.92188C 4.40234 6.57422 3.99023 6.40039 3.47461 6.40039C 3.00195 6.40039 2.63086 6.50391 2.36133 6.71094L 2.07422 6.94531L 1.20703 6.72266ZM 12.7969 7.36133C 12.7969 8.63086 12.5801 9.57422 12.1465 10.1914C 11.7129 10.8086 11.0352 11.1172 10.1133 11.1172C 9.20312 11.1172 8.5293 10.8164 8.0918 10.2148C 7.6543 9.60938 7.42773 8.70703 7.41211 7.50781L 7.41211 6.06055C 7.41211 4.80664 7.62891 3.875 8.0625 3.26562C 8.49609 2.65625 9.17578 2.35156 10.1016 2.35156C 11.0195 2.35156 11.6953 2.64648 12.1289 3.23633C 12.5625 3.82227 12.7852 4.72852 12.7969 5.95508L 12.7969 7.36133ZM 11.7129 5.87891C 11.7129 4.96094 11.584 4.29297 11.3262 3.875C 11.0684 3.45312 10.6602 3.24219 10.1016 3.24219C 9.54688 3.24219 9.14258 3.45117 8.88867 3.86914C 8.63477 4.28711 8.50391 4.92969 8.49609 5.79688L 8.49609 7.53125C 8.49609 8.45312 8.62891 9.13477 8.89453 9.57617C 9.16406 10.0137 9.57031 10.2324 10.1133 10.2324C 10.6484 10.2324 11.0449 10.0254 11.3027 9.61133C 11.5645 9.19727 11.7012 8.54492 11.7129 7.6543L 11.7129 5.87891ZM 17.0098 7.77734C 17.0098 6.80469 17.2402 6.02344 17.7012 5.43359C 18.1621 4.83984 18.7656 4.54297 19.5117 4.54297C 20.2539 4.54297 20.8418 4.79688 21.2754 5.30469L 21.2754 2L 22.3594 2L 22.3594 11L 21.3633 11L 21.3105 10.3203C 20.877 10.8516 20.2734 11.1172 19.5 11.1172C 18.7656 11.1172 18.166 10.8164 17.7012 10.2148C 17.2402 9.61328 17.0098 8.82812 17.0098 7.85938L 17.0098 7.77734ZM 18.0938 7.90039C 18.0938 8.61914 18.2422 9.18164 18.5391 9.58789C 18.8359 9.99414 19.2461 10.1973 19.7695 10.1973C 20.457 10.1973 20.959 9.88867 21.2754 9.27148L 21.2754 6.35938C 20.9512 5.76172 20.4531 5.46289 19.7812 5.46289C 19.25 5.46289 18.8359 5.66797 18.5391 6.07812C 18.2422 6.48828 18.0938 7.0957 18.0938 7.90039ZM 26.6777 11.1172C 25.8184 11.1172 25.1191 10.8359 24.5801 10.2734C 24.041 9.70703 23.7715 8.95117 23.7715 8.00586L 23.7715 7.80664C 23.7715 7.17773 23.8906 6.61719 24.1289 6.125C 24.3711 5.62891 24.707 5.24219 25.1367 4.96484C 25.5703 4.68359 26.0391 4.54297 26.543 4.54297C 27.3672 4.54297 28.0078 4.81445 28.4648 5.35742C 28.9219 5.90039 29.1504 6.67773 29.1504 7.68945L 29.1504 8.14062L 24.8555 8.14062C 24.8711 8.76562 25.0527 9.27148 25.4004 9.6582C 25.752 10.041 26.1973 10.2324 26.7363 10.2324C 27.1191 10.2324 27.4434 10.1543 27.709 9.99805C 27.9746 9.8418 28.207 9.63477 28.4062 9.37695L 29.0684 9.89258C 28.5371 10.709 27.7402 11.1172 26.6777 11.1172ZM 26.543 5.43359C 26.1055 5.43359 25.7383 5.59375 25.4414 5.91406C 25.1445 6.23047 24.9609 6.67578 24.8906 7.25L 28.0664 7.25L 28.0664 7.16797C 28.0352 6.61719 27.8867 6.19141 27.6211 5.89062C 27.3555 5.58594 26.9961 5.43359 26.543 5.43359ZM 30.1523 7.77734C 30.1523 6.78906 30.3809 6.00391 30.8379 5.42188C 31.2949 4.83594 31.9004 4.54297 32.6543 4.54297C 33.4277 4.54297 34.0312 4.81641 34.4648 5.36328L 34.5176 4.66016L 35.5078 4.66016L 35.5078 10.8477C 35.5078 11.668 35.2637 12.3145 34.7754 12.7871C 34.291 13.2598 33.6387 13.4961 32.8184 13.4961C 32.3613 13.4961 31.9141 13.3984 31.4766 13.2031C 31.0391 13.0078 30.7051 12.7402 30.4746 12.4004L 31.0371 11.75C 31.502 12.3242 32.0703 12.6113 32.7422 12.6113C 33.2695 12.6113 33.6797 12.4629 33.9727 12.166C 34.2695 11.8691 34.418 11.4512 34.418 10.9121L 34.418 10.3672C 33.9844 10.8672 33.3926 11.1172 32.6426 11.1172C 31.9004 11.1172 31.2988 10.8184 30.8379 10.2207C 30.3809 9.62305 30.1523 8.80859 30.1523 7.77734ZM 31.2422 7.90039C 31.2422 8.61523 31.3887 9.17773 31.6816 9.58789C 31.9746 9.99414 32.3848 10.1973 32.9121 10.1973C 33.5957 10.1973 34.0977 9.88672 34.418 9.26562L 34.418 6.37109C 34.0859 5.76562 33.5879 5.46289 32.9238 5.46289C 32.3965 5.46289 31.9844 5.66797 31.6875 6.07812C 31.3906 6.48828 31.2422 7.0957 31.2422 7.90039Z"/>
<path id="path18_fill" d="M 5.28516 8.13477L 6.46875 8.13477L 6.46875 9.01953L 5.28516 9.01953L 5.28516 11L 4.19531 11L 4.19531 9.01953L 0.310547 9.01953L 0.310547 8.38086L 4.13086 2.46875L 5.28516 2.46875L 5.28516 8.13477ZM 1.54102 8.13477L 4.19531 8.13477L 4.19531 3.95117L 4.06641 4.18555L 1.54102 8.13477ZM 12.7969 7.36133C 12.7969 8.63086 12.5801 9.57422 12.1465 10.1914C 11.7129 10.8086 11.0352 11.1172 10.1133 11.1172C 9.20312 11.1172 8.5293 10.8164 8.0918 10.2148C 7.6543 9.60938 7.42773 8.70703 7.41211 7.50781L 7.41211 6.06055C 7.41211 4.80664 7.62891 3.875 8.0625 3.26562C 8.49609 2.65625 9.17578 2.35156 10.1016 2.35156C 11.0195 2.35156 11.6953 2.64648 12.1289 3.23633C 12.5625 3.82227 12.7852 4.72852 12.7969 5.95508L 12.7969 7.36133ZM 11.7129 5.87891C 11.7129 4.96094 11.584 4.29297 11.3262 3.875C 11.0684 3.45312 10.6602 3.24219 10.1016 3.24219C 9.54688 3.24219 9.14258 3.45117 8.88867 3.86914C 8.63477 4.28711 8.50391 4.92969 8.49609 5.79688L 8.49609 7.53125C 8.49609 8.45312 8.62891 9.13477 8.89453 9.57617C 9.16406 10.0137 9.57031 10.2324 10.1133 10.2324C 10.6484 10.2324 11.0449 10.0254 11.3027 9.61133C 11.5645 9.19727 11.7012 8.54492 11.7129 7.6543L 11.7129 5.87891ZM 17.0098 7.77734C 17.0098 6.80469 17.2402 6.02344 17.7012 5.43359C 18.1621 4.83984 18.7656 4.54297 19.5117 4.54297C 20.2539 4.54297 20.8418 4.79688 21.2754 5.30469L 21.2754 2L 22.3594 2L 22.3594 11L 21.3633 11L 21.3105 10.3203C 20.877 10.8516 20.2734 11.1172 19.5 11.1172C 18.7656 11.1172 18.166 10.8164 17.7012 10.2148C 17.2402 9.61328 17.0098 8.82812 17.0098 7.85938L 17.0098 7.77734ZM 18.0938 7.90039C 18.0938 8.61914 18.2422 9.18164 18.5391 9.58789C 18.8359 9.99414 19.2461 10.1973 19.7695 10.1973C 20.457 10.1973 20.959 9.88867 21.2754 9.27148L 21.2754 6.35938C 20.9512 5.76172 20.4531 5.46289 19.7812 5.46289C 19.25 5.46289 18.8359 5.66797 18.5391 6.07812C 18.2422 6.48828 18.0938 7.0957 18.0938 7.90039ZM 26.6777 11.1172C 25.8184 11.1172 25.1191 10.8359 24.5801 10.2734C 24.041 9.70703 23.7715 8.95117 23.7715 8.00586L 23.7715 7.80664C 23.7715 7.17773 23.8906 6.61719 24.1289 6.125C 24.3711 5.62891 24.707 5.24219 25.1367 4.96484C 25.5703 4.68359 26.0391 4.54297 26.543 4.54297C 27.3672 4.54297 28.0078 4.81445 28.4648 5.35742C 28.9219 5.90039 29.1504 6.67773 29.1504 7.68945L 29.1504 8.14062L 24.8555 8.14062C 24.8711 8.76562 25.0527 9.27148 25.4004 9.6582C 25.752 10.041 26.1973 10.2324 26.7363 10.2324C 27.1191 10.2324 27.4434 10.1543 27.709 9.99805C 27.9746 9.8418 28.207 9.63477 28.4062 9.37695L 29.0684 9.89258C 28.5371 10.709 27.7402 11.1172 26.6777 11.1172ZM 26.543 5.43359C 26.1055 5.43359 25.7383 5.59375 25.4414 5.91406C 25.1445 6.23047 24.9609 6.67578 24.8906 7.25L 28.0664 7.25L 28.0664 7.16797C 28.0352 6.61719 27.8867 6.19141 27.6211 5.89062C 27.3555 5.58594 26.9961 5.43359 26.543 5.43359ZM 30.1523 7.77734C 30.1523 6.78906 30.3809 6.00391 30.8379 5.42188C 31.2949 4.83594 31.9004 4.54297 32.6543 4.54297C 33.4277 4.54297 34.0312 4.81641 34.4648 5.36328L 34.5176 4.66016L 35.5078 4.66016L 35.5078 10.8477C 35.5078 11.668 35.2637 12.3145 34.7754 12.7871C 34.291 13.2598 33.6387 13.4961 32.8184 13.4961C 32.3613 13.4961 31.9141 13.3984 31.4766 13.2031C 31.0391 13.0078 30.7051 12.7402 30.4746 12.4004L 31.0371 11.75C 31.502 12.3242 32.0703 12.6113 32.7422 12.6113C 33.2695 12.6113 33.6797 12.4629 33.9727 12.166C 34.2695 11.8691 34.418 11.4512 34.418 10.9121L 34.418 10.3672C 33.9844 10.8672 33.3926 11.1172 32.6426 11.1172C 31.9004 11.1172 31.2988 10.8184 30.8379 10.2207C 30.3809 9.62305 30.1523 8.80859 30.1523 7.77734ZM 31.2422 7.90039C 31.2422 8.61523 31.3887 9.17773 31.6816 9.58789C 31.9746 9.99414 32.3848 10.1973 32.9121 10.1973C 33.5957 10.1973 34.0977 9.88672 34.418 9.26562L 34.418 6.37109C 34.0859 5.76562 33.5879 5.46289 32.9238 5.46289C 32.3965 5.46289 31.9844 5.66797 31.6875 6.07812C 31.3906 6.48828 31.2422 7.0957 31.2422 7.90039Z"/>
<path id="path19_fill" d="M 19.4375 27.0156C 18.6667 28.1198 17.5885 28.9479 16.2031 29.5C 14.8281 30.0417 13.224 30.3125 11.3906 30.3125C 9.53646 30.3125 7.89062 29.8802 6.45312 29.0156C 5.01562 28.1406 3.90104 26.901 3.10938 25.2969C 2.32812 23.6927 1.92708 21.8333 1.90625 19.7188L 1.90625 17.7344C 1.90625 14.3073 2.70312 11.651 4.29688 9.76562C 5.90104 7.88021 8.15104 6.9375 11.0469 6.9375C 13.4219 6.9375 15.3333 7.54688 16.7812 8.76562C 18.2292 9.97396 19.1146 11.6927 19.4375 13.9219L 16.4375 13.9219C 15.875 10.9115 14.0833 9.40625 11.0625 9.40625C 9.05208 9.40625 7.52604 10.1146 6.48438 11.5312C 5.45312 12.9375 4.93229 14.9792 4.92188 17.6562L 4.92188 19.5156C 4.92188 22.0677 5.50521 24.099 6.67188 25.6094C 7.83854 27.1094 9.41667 27.8594 11.4062 27.8594C 12.5312 27.8594 13.5156 27.7344 14.3594 27.4844C 15.2031 27.2344 15.901 26.8125 16.4531 26.2188L 16.4531 21.1094L 11.1875 21.1094L 11.1875 18.6719L 19.4375 18.6719L 19.4375 27.0156ZM 27.1406 30L 24.25 30L 24.25 13.0938L 27.1406 13.0938L 27.1406 30ZM 24.0156 8.60938C 24.0156 8.14062 24.1562 7.74479 24.4375 7.42188C 24.7292 7.09896 25.1562 6.9375 25.7188 6.9375C 26.2812 6.9375 26.7083 7.09896 27 7.42188C 27.2917 7.74479 27.4375 8.14062 27.4375 8.60938C 27.4375 9.07812 27.2917 9.46875 27 9.78125C 26.7083 10.0938 26.2812 10.25 25.7188 10.25C 25.1562 10.25 24.7292 10.0938 24.4375 9.78125C 24.1562 9.46875 24.0156 9.07812 24.0156 8.60938ZM 33.2031 30L 33.2031 15.3281L 30.5312 15.3281L 30.5312 13.0938L 33.2031 13.0938L 33.2031 11.3594C 33.2031 9.54688 33.6875 8.14583 34.6562 7.15625C 35.625 6.16667 36.9948 5.67188 38.7656 5.67188C 39.4323 5.67188 40.0938 5.76042 40.75 5.9375L 40.5938 8.28125C 40.1042 8.1875 39.5833 8.14062 39.0312 8.14062C 38.0938 8.14062 37.3698 8.41667 36.8594 8.96875C 36.349 9.51042 36.0938 10.2917 36.0938 11.3125L 36.0938 13.0938L 39.7031 13.0938L 39.7031 15.3281L 36.0938 15.3281L 36.0938 30L 33.2031 30ZM 46.8281 9L 46.8281 13.0938L 49.9844 13.0938L 49.9844 15.3281L 46.8281 15.3281L 46.8281 25.8125C 46.8281 26.4896 46.9688 27 47.25 27.3438C 47.5312 27.6771 48.0104 27.8438 48.6875 27.8438C 49.0208 27.8438 49.4792 27.7812 50.0625 27.6562L 50.0625 30C 49.3021 30.2083 48.5625 30.3125 47.8438 30.3125C 46.5521 30.3125 45.5781 29.9219 44.9219 29.1406C 44.2656 28.3594 43.9375 27.25 43.9375 25.8125L 43.9375 15.3281L 40.8594 15.3281L 40.8594 13.0938L 43.9375 13.0938L 43.9375 9L 46.8281 9ZM 62.3438 18.5938L 63.5 7.25L 75.1562 7.25L 75.1562 9.92188L 65.9531 9.92188L 65.2656 16.125C 66.3802 15.4688 67.6458 15.1406 69.0625 15.1406C 71.1354 15.1406 72.7812 15.8281 74 17.2031C 75.2188 18.5677 75.8281 20.4167 75.8281 22.75C 75.8281 25.0938 75.1927 26.9427 73.9219 28.2969C 72.6615 29.6406 70.8958 30.3125 68.625 30.3125C 66.6146 30.3125 64.974 29.7552 63.7031 28.6406C 62.4323 27.526 61.7083 25.9844 61.5312 24.0156L 64.2656 24.0156C 64.4427 25.3177 64.9062 26.3021 65.6562 26.9688C 66.4062 27.625 67.3958 27.9531 68.625 27.9531C 69.9688 27.9531 71.0208 27.4948 71.7812 26.5781C 72.5521 25.6615 72.9375 24.3958 72.9375 22.7812C 72.9375 21.2604 72.5208 20.0417 71.6875 19.125C 70.8646 18.1979 69.7656 17.7344 68.3906 17.7344C 67.1302 17.7344 66.1406 18.0104 65.4219 18.5625L 64.6562 19.1875L 62.3438 18.5938Z"/>
<path id="path20_fill" d="M 23.082 31.4561C 22.1667 32.7673 20.8864 33.7507 19.2412 34.4062C 17.6084 35.0495 15.7035 35.3711 13.5264 35.3711C 11.3245 35.3711 9.37012 34.8577 7.66309 33.8311C 5.95605 32.792 4.63249 31.32 3.69238 29.415C 2.76465 27.5101 2.28841 25.3021 2.26367 22.791L 2.26367 20.4346C 2.26367 16.3649 3.20996 13.2106 5.10254 10.9717C 7.00749 8.73275 9.67936 7.61328 13.1182 7.61328C 15.9385 7.61328 18.2083 8.33691 19.9277 9.78418C 21.6471 11.2191 22.6986 13.2601 23.082 15.9072L 19.5195 15.9072C 18.8516 12.3324 16.724 10.5449 13.1367 10.5449C 10.7493 10.5449 8.93717 11.3861 7.7002 13.0684C 6.47559 14.7383 5.8571 17.1628 5.84473 20.3418L 5.84473 22.5498C 5.84473 25.5804 6.53743 27.9925 7.92285 29.7861C 9.30827 31.5674 11.1823 32.458 13.5449 32.458C 14.8809 32.458 16.0498 32.3096 17.0518 32.0127C 18.0537 31.7158 18.8825 31.2148 19.5381 30.5098L 19.5381 24.4424L 13.2852 24.4424L 13.2852 21.5479L 23.082 21.5479L 23.082 31.4561ZM 32.2295 35L 28.7969 35L 28.7969 14.9238L 32.2295 14.9238L 32.2295 35ZM 28.5186 9.59863C 28.5186 9.04199 28.6855 8.57194 29.0195 8.18848C 29.3659 7.80501 29.873 7.61328 30.541 7.61328C 31.209 7.61328 31.7161 7.80501 32.0625 8.18848C 32.4089 8.57194 32.582 9.04199 32.582 9.59863C 32.582 10.1553 32.4089 10.6191 32.0625 10.9902C 31.7161 11.3613 31.209 11.5469 30.541 11.5469C 29.873 11.5469 29.3659 11.3613 29.0195 10.9902C 28.6855 10.6191 28.5186 10.1553 28.5186 9.59863ZM 39.4287 35L 39.4287 17.5771L 36.2559 17.5771L 36.2559 14.9238L 39.4287 14.9238L 39.4287 12.8643C 39.4287 10.7119 40.0039 9.04818 41.1543 7.87305C 42.3047 6.69792 43.9313 6.11035 46.0342 6.11035C 46.8258 6.11035 47.6113 6.21549 48.3906 6.42578L 48.2051 9.20898C 47.6237 9.09766 47.0052 9.04199 46.3496 9.04199C 45.2363 9.04199 44.3766 9.36979 43.7705 10.0254C 43.1644 10.6686 42.8613 11.5964 42.8613 12.8086L 42.8613 14.9238L 47.1475 14.9238L 47.1475 17.5771L 42.8613 17.5771L 42.8613 35L 39.4287 35ZM 55.6084 10.0625L 55.6084 14.9238L 59.3564 14.9238L 59.3564 17.5771L 55.6084 17.5771L 55.6084 30.0273C 55.6084 30.8314 55.7754 31.4375 56.1094 31.8457C 56.4434 32.2415 57.0124 32.4395 57.8164 32.4395C 58.2122 32.4395 58.7565 32.3652 59.4492 32.2168L 59.4492 35C 58.5462 35.2474 57.668 35.3711 56.8145 35.3711C 55.2806 35.3711 54.124 34.9072 53.3447 33.9795C 52.5654 33.0518 52.1758 31.7344 52.1758 30.0273L 52.1758 17.5771L 48.5205 17.5771L 48.5205 14.9238L 52.1758 14.9238L 52.1758 10.0625L 55.6084 10.0625ZM 76.501 7.96582L 76.501 10.8789L 75.8701 10.8789C 73.1982 10.9284 71.0706 11.7201 69.4873 13.2539C 67.904 14.7878 66.9886 16.9463 66.7412 19.7295C 68.1637 18.0967 70.1058 17.2803 72.5674 17.2803C 74.9176 17.2803 76.7917 18.109 78.1895 19.7666C 79.5996 21.4242 80.3047 23.5641 80.3047 26.1865C 80.3047 28.9697 79.5439 31.1963 78.0225 32.8662C 76.5133 34.5361 74.4847 35.3711 71.9365 35.3711C 69.3512 35.3711 67.2546 34.3815 65.6465 32.4023C 64.0384 30.4108 63.2344 27.8503 63.2344 24.7207L 63.2344 23.4033C 63.2344 18.4307 64.292 14.6331 66.4072 12.0107C 68.5348 9.37598 71.6953 8.02767 75.8887 7.96582L 76.501 7.96582ZM 71.9922 20.1377C 70.8171 20.1377 69.7347 20.4902 68.7451 21.1953C 67.7555 21.9004 67.069 22.7848 66.6855 23.8486L 66.6855 25.1104C 66.6855 27.3369 67.1865 29.1305 68.1885 30.4912C 69.1904 31.8519 70.4398 32.5322 71.9365 32.5322C 73.4827 32.5322 74.695 31.9632 75.5732 30.8252C 76.4639 29.6872 76.9092 28.1966 76.9092 26.3535C 76.9092 24.498 76.4577 23.0013 75.5547 21.8633C 74.6641 20.7129 73.4766 20.1377 71.9922 20.1377ZM 85.9453 21.4551L 87.3184 7.98438L 101.16 7.98438L 101.16 11.1572L 90.2314 11.1572L 89.415 18.5234C 90.7386 17.7441 92.2415 17.3545 93.9238 17.3545C 96.3854 17.3545 98.3398 18.1709 99.7871 19.8037C 101.234 21.4242 101.958 23.6198 101.958 26.3906C 101.958 29.1738 101.203 31.3695 99.6943 32.9775C 98.1976 34.5732 96.1009 35.3711 93.4043 35.3711C 91.0169 35.3711 89.0687 34.7093 87.5596 33.3857C 86.0505 32.0622 85.1908 30.2314 84.9805 27.8936L 88.2275 27.8936C 88.4378 29.4398 88.9883 30.6087 89.8789 31.4004C 90.7695 32.1797 91.9447 32.5693 93.4043 32.5693C 95 32.5693 96.2493 32.0251 97.1523 30.9365C 98.0677 29.848 98.5254 28.3451 98.5254 26.4277C 98.5254 24.6217 98.0306 23.1745 97.041 22.0859C 96.0638 20.985 94.7588 20.4346 93.126 20.4346C 91.6292 20.4346 90.4541 20.7624 89.6006 21.418L 88.6914 22.1602L 85.9453 21.4551Z"/>
</defs>
</svg>
